<?xml version="1.0" encoding="utf-8"?>
<!-- Generator: Adobe Illustrator 17.0.2, SVG Export Plug-In . SVG Version: 6.00 Build 0)  -->
<!DOCTYPE svg PUBLIC "-//W3C//DTD SVG 1.1//EN" "http://www.w3.org/Graphics/SVG/1.1/DTD/svg11.dtd">
<svg version="1.1" id="Layer_1" xmlns="http://www.w3.org/2000/svg" xmlns:xlink="http://www.w3.org/1999/xlink" x="0px" y="0px"
	 width="100px" height="100px" viewBox="0 0 100 100" enable-background="new 0 0 100 100" xml:space="preserve">
<path fill="#FFFFFF" d="M100,76.013c0,4.418-3.582,8-8,8H8c-4.418,0-8-3.582-8-8v-52c0-4.418,3.582-8,8-8h84c4.418,0,8,3.582,8,8
	V76.013z"/>
<path fill="#27AE60" d="M50,16.013H8c-4.418,0-8,3.582-8,8v52c0,4.418,3.582,8,8,8h42V16.013z"/>
<path fill="#E74C3C" d="M62.316,45.693c0.197,0.99,1.117,2.127,2.045,2.526l3.296,1.419c0.928,0.399,0.965,1.13,0.085,1.623
	l-3.131,1.753c-0.88,0.493-1.678,1.72-1.771,2.725l-0.331,3.573c-0.093,1.005-0.775,1.267-1.517,0.582l-2.635-2.436
	c-0.741-0.685-2.154-1.065-3.138-0.842l-3.501,0.789c-0.985,0.222-1.445-0.347-1.022-1.264l1.503-3.259
	c0.423-0.917,0.347-2.377-0.169-3.245l-1.832-3.085c-0.516-0.868-0.117-1.481,0.886-1.363l3.563,0.422
	c1.002,0.119,2.368-0.404,3.034-1.163l2.368-2.696c0.666-0.759,1.373-0.569,1.57,0.421L62.316,45.693z"/>
<path fill="#E74C3C" d="M47.713,71.234C36.656,69.673,28.93,59.408,30.49,48.35s11.826-18.784,22.884-17.223
	c5.831,0.823,11.008,4.15,14.204,9.128c0.139,0.215,0.089,0.501-0.114,0.658c-0.109,0.084-0.243,0.116-0.37,0.098
	c-0.11-0.016-0.215-0.068-0.295-0.155c-2.389-2.601-5.632-4.305-9.132-4.799c-8.361-1.18-16.122,4.662-17.302,13.022
	s4.662,16.122,13.022,17.302c4.898,0.691,9.859-1.053,13.272-4.664c0.113-0.12,0.275-0.172,0.428-0.15
	c0.084,0.012,0.166,0.046,0.237,0.102c0.201,0.159,0.246,0.445,0.105,0.659C63.135,68.822,55.396,72.318,47.713,71.234z"/>
</svg>
