<?xml version="1.0" encoding="utf-8"?>
<!-- Generator: Adobe Illustrator 17.0.2, SVG Export Plug-In . SVG Version: 6.00 Build 0)  -->
<!DOCTYPE svg PUBLIC "-//W3C//DTD SVG 1.1//EN" "http://www.w3.org/Graphics/SVG/1.1/DTD/svg11.dtd">
<svg version="1.1" id="Layer_1" xmlns="http://www.w3.org/2000/svg" xmlns:xlink="http://www.w3.org/1999/xlink" x="0px" y="0px"
	 width="100px" height="100px" viewBox="0 0 100 100" enable-background="new 0 0 100 100" xml:space="preserve">
<path fill="#E74C3C" d="M100,76c0,4.418-3.582,8-8,8H8c-4.418,0-8-3.582-8-8V24c0-4.418,3.582-8,8-8h84c4.418,0,8,3.582,8,8V76z"/>
<path fill="#2C3E50" d="M100,76c0,4.418-3.582,8-8,8H8c-4.418,0-8-3.582-8-8V50h100V76z"/>
<g>
	<path fill="#F1C40F" d="M65.159,69.22c-0.287,0-0.579-0.102-0.869-0.303c-0.374-0.26-0.651-0.697-0.971-1.204
		c-0.291-0.46-0.621-0.982-1.079-1.446l-0.202-0.173c-0.607-0.532-1.181-1.034-2.709-1.295c-0.15-0.026-0.273-0.134-0.328-0.29
		c-0.055-0.153-0.049-0.378,0.088-0.537l1.609-1.888c0.06-0.071,0.146-0.113,0.239-0.117c0.006-0.001,0.011-0.001,0.016-0.001
		c0.087,0,0.17,0.033,0.233,0.094c0.482,0.466,1.068,0.934,1.635,1.387c0.416,0.332,0.821,0.656,1.172,0.967
		c0.785,0.697,1.48,1.348,2.039,2.256c0.394,0.64,0.446,1.381,0.137,1.933C65.949,68.996,65.581,69.22,65.159,69.22z"/>
	<g>
		<path fill="#F1C40F" d="M51.941,60.611l-2.214-1.309c-1.075,0.3-2.204,0.473-3.373,0.473c-2.879-0.001-5.624-1.006-7.937-2.906
			c-0.06-0.049-0.135-0.076-0.212-0.076c-0.011,0-0.022,0.001-0.033,0.001c-0.088,0.009-0.17,0.052-0.226,0.121l-1.888,2.303
			c-0.117,0.143-0.096,0.354,0.046,0.471c0.706,0.579,1.489,1.115,2.333,1.597l-0.498,0.931c-0.087,0.163-0.025,0.365,0.138,0.452
			c1.011,0.541,2.082,0.985,3.18,1.318c0.032,0.01,0.065,0.014,0.097,0.014c0.054,0,0.109-0.013,0.158-0.039
			c0.078-0.042,0.137-0.113,0.163-0.198l0.296-0.976c0.821,0.239,1.645,0.411,2.461,0.513l-0.098,0.991
			c-0.018,0.184,0.116,0.348,0.301,0.366c0.569,0.056,1.148,0.085,1.721,0.085s1.152-0.029,1.721-0.085
			c0.184-0.018,0.318-0.182,0.301-0.366l-0.097-0.982c0.832-0.099,1.66-0.263,2.469-0.491l0.286,0.945
			c0.025,0.085,0.084,0.156,0.163,0.198c0.049,0.026,0.103,0.039,0.158,0.039c0.033,0,0.065-0.005,0.097-0.014
			c0.421-0.128,0.836-0.277,1.247-0.436L51.941,60.611z"/>
		<path fill="#F1C40F" d="M63.831,45.461c-0.009-0.088-0.052-0.17-0.121-0.226c-0.06-0.049-0.135-0.076-0.212-0.076
			c-0.011,0-1.024,0.099-1.024,0.099c-0.099-0.823-0.267-1.649-0.499-2.465l0.961-0.292c0.177-0.054,0.277-0.241,0.223-0.417
			c-0.331-1.095-0.775-2.165-1.317-3.18c-0.042-0.078-0.113-0.137-0.198-0.163c-0.032-0.009-0.065-0.014-0.097-0.014
			c-0.054,0-0.109,0.013-0.158,0.04l-0.906,0.484c-0.412-0.722-0.885-1.418-1.409-2.075l0.808-0.663
			c0.143-0.117,0.163-0.328,0.046-0.471c-0.729-0.888-1.548-1.707-2.434-2.434c-0.062-0.051-0.137-0.076-0.212-0.076
			c-0.097,0-0.193,0.042-0.259,0.122l-0.677,0.825c-0.667-0.519-1.365-0.984-2.084-1.384l0.507-0.947
			c0.042-0.078,0.05-0.17,0.025-0.255c-0.025-0.085-0.084-0.156-0.163-0.198c-1.012-0.541-2.082-0.984-3.18-1.317
			c-0.033-0.01-0.065-0.014-0.097-0.014c-0.144,0-0.277,0.093-0.32,0.238l-0.313,1.031c-0.879-0.245-1.777-0.416-2.676-0.511
			c-0.012-0.001-0.024-0.002-0.036-0.002c-0.169,0-0.314,0.127-0.332,0.299l-0.314,2.948c-0.01,0.089,0.016,0.177,0.073,0.246
			c0.056,0.069,0.137,0.113,0.226,0.122c6.43,0.674,11.278,6.029,11.278,12.455c0,3.754-1.661,7.12-4.276,9.428l4.184,2.9
			c0.378-0.382,0.741-0.778,1.082-1.193c0.056-0.069,0.083-0.157,0.075-0.245c-0.009-0.088-0.052-0.17-0.121-0.226l-0.767-0.629
			c0.517-0.658,0.986-1.359,1.399-2.092l0.875,0.467c0.049,0.026,0.103,0.039,0.158,0.039c0.033,0,0.065-0.005,0.097-0.014
			c0.085-0.026,0.156-0.084,0.198-0.163c0.542-1.015,0.985-2.086,1.317-3.181c0.054-0.177-0.046-0.364-0.223-0.417l-0.949-0.288
			c0.227-0.809,0.391-1.636,0.489-2.468c0,0,1.011,0.099,1.022,0.099c0.17,0,0.316-0.129,0.333-0.302
			C63.943,47.761,63.943,46.603,63.831,45.461z"/>
	</g>
	<path fill="#F1C40F" d="M58.426,63.792c-0.064,0-0.129-0.018-0.186-0.056c-5.597-3.722-9.134-5.733-14.489-8.777l-0.409-0.233
		c-1.472-0.837-6.039-4.028-3.008-9.945c0.058-0.114,0.175-0.182,0.298-0.182c0.024,0,0.047,0.003,0.071,0.007
		c0.148,0.032,0.256,0.16,0.263,0.311c0.148,3.013,12.152,11.557,17.922,15.663l1.213,0.864c0.076,0.055,0.126,0.139,0.137,0.231
		c0.012,0.093-0.016,0.187-0.077,0.258l-1.482,1.741C58.615,63.751,58.521,63.792,58.426,63.792z"/>
	<path fill="#F1C40F" d="M47.66,37.994c0.233,0.493,0.864,0.968,1.403,1.055l1.913,0.311c0.538,0.087,0.654,0.465,0.257,0.839
		l-1.411,1.329c-0.397,0.374-0.653,1.121-0.57,1.66l0.295,1.915c0.083,0.539-0.24,0.766-0.719,0.504l-1.7-0.931
		c-0.478-0.262-1.268-0.275-1.755-0.03l-1.731,0.873c-0.487,0.245-0.803,0.008-0.701-0.528l0.36-1.905
		c0.101-0.536-0.13-1.291-0.514-1.678l-1.365-1.376c-0.384-0.387-0.256-0.761,0.285-0.83l1.922-0.246
		c0.541-0.069,1.188-0.523,1.437-1.008l0.887-1.723c0.249-0.485,0.645-0.478,0.878,0.015L47.66,37.994z"/>
</g>
</svg>
