<?xml version="1.0" encoding="utf-8"?>
<!-- Generator: Adobe Illustrator 17.0.2, SVG Export Plug-In . SVG Version: 6.00 Build 0)  -->
<!DOCTYPE svg PUBLIC "-//W3C//DTD SVG 1.1//EN" "http://www.w3.org/Graphics/SVG/1.1/DTD/svg11.dtd">
<svg version="1.1" id="Layer_1" xmlns="http://www.w3.org/2000/svg" xmlns:xlink="http://www.w3.org/1999/xlink" x="0px" y="0px"
	 width="100px" height="100px" viewBox="0 0 100 100" enable-background="new 0 0 100 100" xml:space="preserve">
<path fill="#E74C3C" d="M100,76c0,4.418-3.582,8-8,8H8c-4.418,0-8-3.582-8-8V24c0-4.418,3.582-8,8-8h84c4.418,0,8,3.582,8,8V76z"/>
<path fill="#27AE60" d="M100,76c0,4.418-3.582,8-8,8H8c-4.418,0-8-3.582-8-8V51h100V76z"/>
<path fill="#F1C40F" d="M52.683,44.334c0.472,0.998,1.75,1.96,2.84,2.137l3.873,0.63c1.09,0.177,1.324,0.942,0.521,1.699
	l-2.856,2.691c-0.803,0.757-1.323,2.27-1.155,3.361l0.598,3.878c0.168,1.091-0.486,1.55-1.455,1.02l-3.442-1.884
	c-0.968-0.53-2.568-0.557-3.553-0.06l-3.504,1.767c-0.986,0.497-1.625,0.016-1.42-1.069l0.729-3.856
	c0.205-1.085-0.263-2.614-1.041-3.398l-2.763-2.786c-0.778-0.784-0.518-1.54,0.578-1.681l3.892-0.499
	c1.095-0.14,2.405-1.058,2.91-2.04l1.796-3.489c0.505-0.982,1.305-0.968,1.777,0.03L52.683,44.334z"/>
</svg>
