<?xml version="1.0" encoding="utf-8"?>
<!-- Generator: Adobe Illustrator 17.0.2, SVG Export Plug-In . SVG Version: 6.00 Build 0)  -->
<!DOCTYPE svg PUBLIC "-//W3C//DTD SVG 1.1//EN" "http://www.w3.org/Graphics/SVG/1.1/DTD/svg11.dtd">
<svg version="1.1" id="Layer_1" xmlns="http://www.w3.org/2000/svg" xmlns:xlink="http://www.w3.org/1999/xlink" x="0px" y="0px"
	 width="100px" height="100px" viewBox="0 0 100 100" enable-background="new 0 0 100 100" xml:space="preserve">
<path fill="#E74C3C" d="M100,76.013c0,4.418-3.582,8-8,8H8c-4.418,0-8-3.582-8-8v-52c0-4.418,3.582-8,8-8h84c4.418,0,8,3.582,8,8
	V76.013z"/>
<path fill="#FFFFFF" d="M96.441,17.344c-9.691,5.489-46.42,26.752-46.42,26.752S13.25,22.833,3.559,17.344
	C1.413,18.779,0,21.225,0,24v20.096V55.93V76c0,2.464,1.114,4.667,2.865,6.135L50,55.93l47.135,26.205
	C98.886,80.667,100,78.464,100,76V55.93V44.096V24C100,21.225,98.587,18.779,96.441,17.344z"/>
<polygon fill="#2ECC71" points="0,75.865 0,23.865 47.167,50.453 "/>
<polygon fill="#2ECC71" points="52.833,50.453 100,23.865 100,75.865 "/>
<circle fill="#FFFFFF" cx="50" cy="50" r="18.25"/>
<g>
	<path fill="#2ECC71" d="M49.921,46.719c-0.175,0-0.336-0.09-0.429-0.237l-1.164-1.857l-2.191-0.073
		c-0.175-0.005-0.334-0.101-0.421-0.252c-0.088-0.151-0.091-0.337-0.009-0.491l1.027-1.937L45.7,39.937
		c-0.083-0.154-0.08-0.339,0.007-0.491c0.088-0.151,0.246-0.247,0.421-0.253l2.19-0.08l1.159-1.861
		c0.092-0.148,0.254-0.238,0.429-0.239c0,0,0,0,0.001,0c0.175,0,0.336,0.09,0.429,0.237l1.164,1.858l2.191,0.073
		c0.174,0.005,0.334,0.101,0.421,0.252c0.088,0.151,0.091,0.337,0.009,0.491l-1.027,1.937l1.034,1.933
		c0.082,0.154,0.079,0.34-0.008,0.491c-0.087,0.152-0.246,0.247-0.42,0.254l-2.191,0.08l-1.158,1.861
		C50.259,46.629,50.097,46.719,49.921,46.719C49.922,46.719,49.922,46.719,49.921,46.719z"/>
	<path fill="#E74C3C" d="M49.92,45.708c-0.138,0-0.266-0.071-0.34-0.188l-0.922-1.471l-1.735-0.058
		c-0.138-0.004-0.264-0.08-0.334-0.2c-0.069-0.119-0.072-0.267-0.007-0.389l0.813-1.533l-0.818-1.531
		c-0.065-0.122-0.063-0.269,0.006-0.389s0.195-0.196,0.333-0.201l1.734-0.063l0.918-1.474c0.073-0.117,0.201-0.189,0.34-0.189
		c0,0,0,0,0.001,0c0.138,0,0.266,0.071,0.34,0.188l0.922,1.471l1.735,0.058c0.138,0.004,0.265,0.08,0.334,0.2
		c0.07,0.119,0.072,0.267,0.007,0.389l-0.813,1.533l0.819,1.531c0.065,0.122,0.063,0.269-0.006,0.389s-0.195,0.196-0.333,0.201
		l-1.735,0.063l-0.917,1.473C50.187,45.637,50.059,45.708,49.92,45.708L49.92,45.708z"/>
</g>
<g>
	<path fill="#2ECC71" d="M42.921,59.719c-0.175,0-0.336-0.09-0.429-0.237l-1.164-1.857l-2.191-0.073
		c-0.175-0.005-0.334-0.101-0.421-0.252c-0.088-0.151-0.091-0.337-0.009-0.491l1.027-1.937L38.7,52.937
		c-0.083-0.154-0.08-0.339,0.007-0.491c0.088-0.151,0.246-0.247,0.421-0.253l2.19-0.08l1.159-1.861
		c0.092-0.148,0.254-0.238,0.429-0.239c0,0,0,0,0.001,0c0.175,0,0.336,0.09,0.429,0.237l1.164,1.858l2.191,0.073
		c0.174,0.005,0.334,0.101,0.421,0.252c0.088,0.151,0.091,0.337,0.009,0.491l-1.027,1.937l1.034,1.933
		c0.082,0.154,0.079,0.34-0.008,0.491c-0.087,0.152-0.246,0.247-0.42,0.254l-2.191,0.08l-1.158,1.861
		C43.259,59.629,43.097,59.719,42.921,59.719C42.922,59.719,42.922,59.719,42.921,59.719z"/>
	<path fill="#E74C3C" d="M42.92,58.708c-0.138,0-0.266-0.071-0.34-0.188l-0.922-1.471l-1.735-0.058
		c-0.138-0.004-0.264-0.08-0.334-0.2c-0.069-0.119-0.072-0.267-0.007-0.389l0.813-1.533l-0.818-1.531
		c-0.065-0.122-0.063-0.269,0.006-0.389s0.195-0.196,0.333-0.201l1.734-0.063l0.918-1.474c0.073-0.117,0.201-0.189,0.34-0.189
		c0,0,0,0,0.001,0c0.138,0,0.266,0.071,0.34,0.188l0.922,1.471l1.735,0.058c0.138,0.004,0.265,0.08,0.334,0.2
		c0.07,0.119,0.072,0.267,0.007,0.389l-0.813,1.533l0.819,1.531c0.065,0.122,0.063,0.269-0.006,0.389s-0.195,0.196-0.333,0.201
		l-1.735,0.063l-0.917,1.473C43.187,58.637,43.059,58.708,42.92,58.708L42.92,58.708z"/>
</g>
<g>
	<path fill="#2ECC71" d="M56.921,59.719c-0.175,0-0.336-0.09-0.429-0.237l-1.164-1.857l-2.191-0.073
		c-0.175-0.005-0.334-0.101-0.421-0.252c-0.088-0.151-0.091-0.337-0.009-0.491l1.027-1.937L52.7,52.937
		c-0.083-0.154-0.08-0.339,0.007-0.491c0.088-0.151,0.246-0.247,0.421-0.253l2.19-0.08l1.159-1.861
		c0.092-0.148,0.254-0.238,0.429-0.239c0,0,0,0,0.001,0c0.175,0,0.336,0.09,0.429,0.237l1.164,1.858l2.191,0.073
		c0.174,0.005,0.334,0.101,0.421,0.252c0.088,0.151,0.091,0.337,0.009,0.491l-1.027,1.937l1.034,1.933
		c0.082,0.154,0.079,0.34-0.008,0.491c-0.087,0.152-0.246,0.247-0.42,0.254l-2.191,0.08l-1.158,1.861
		C57.259,59.629,57.097,59.719,56.921,59.719C56.922,59.719,56.922,59.719,56.921,59.719z"/>
	<path fill="#E74C3C" d="M56.92,58.708c-0.138,0-0.266-0.071-0.34-0.188l-0.922-1.471l-1.735-0.058
		c-0.138-0.004-0.264-0.08-0.334-0.2c-0.069-0.119-0.072-0.267-0.007-0.389l0.813-1.533l-0.818-1.531
		c-0.065-0.122-0.063-0.269,0.006-0.389s0.195-0.196,0.333-0.201l1.734-0.063l0.918-1.474c0.073-0.117,0.201-0.189,0.34-0.189
		c0,0,0,0,0.001,0c0.138,0,0.266,0.071,0.34,0.188l0.922,1.471l1.735,0.058c0.138,0.004,0.265,0.08,0.334,0.2
		c0.07,0.119,0.072,0.267,0.007,0.389l-0.813,1.533l0.819,1.531c0.065,0.122,0.063,0.269-0.006,0.389s-0.195,0.196-0.333,0.201
		l-1.735,0.063l-0.917,1.473C57.187,58.637,57.059,58.708,56.92,58.708L56.92,58.708z"/>
</g>
</svg>
