<?xml version="1.0" encoding="utf-8"?>
<!-- Generator: Adobe Illustrator 17.0.2, SVG Export Plug-In . SVG Version: 6.00 Build 0)  -->
<!DOCTYPE svg PUBLIC "-//W3C//DTD SVG 1.1//EN" "http://www.w3.org/Graphics/SVG/1.1/DTD/svg11.dtd">
<svg version="1.1" id="Layer_1" xmlns="http://www.w3.org/2000/svg" xmlns:xlink="http://www.w3.org/1999/xlink" x="0px" y="0px"
	 width="100px" height="100px" viewBox="0 0 100 100" enable-background="new 0 0 100 100" xml:space="preserve">
<path fill="#2980B9" d="M100,76c0,4.418-3.582,8-8,8H8c-4.418,0-8-3.582-8-8V24c0-4.418,3.582-8,8-8h84c4.418,0,8,3.582,8,8V76z"/>
<rect x="0" y="55.188" fill="#FFFFFF" width="100.082" height="15.053"/>
<rect x="0" y="60.128" fill="#E74C3C" width="100.082" height="4.704"/>
<path fill="#F1C40F" d="M35.055,47.031c0.084,0.179,0.313,0.351,0.508,0.382l0.693,0.113c0.195,0.032,0.237,0.169,0.093,0.304
	l-0.511,0.482c-0.144,0.135-0.237,0.406-0.207,0.602l0.107,0.694c0.03,0.195-0.087,0.277-0.26,0.183l-0.616-0.337
	c-0.173-0.095-0.46-0.1-0.636-0.011L33.6,49.758c-0.176,0.089-0.291,0.003-0.254-0.191l0.13-0.69
	c0.037-0.194-0.047-0.468-0.186-0.608l-0.495-0.499c-0.139-0.14-0.093-0.276,0.103-0.301l0.697-0.089
	c0.196-0.025,0.43-0.189,0.521-0.365l0.321-0.624c0.09-0.176,0.234-0.173,0.318,0.005L35.055,47.031z"/>
<path fill="#F1C40F" d="M21.61,56.752c0.084,0.179,0.313,0.351,0.508,0.382l0.693,0.113c0.195,0.032,0.237,0.169,0.093,0.304
	l-0.511,0.482c-0.144,0.135-0.237,0.406-0.207,0.602l0.107,0.694c0.03,0.195-0.087,0.277-0.26,0.183l-0.616-0.337
	c-0.173-0.095-0.46-0.1-0.636-0.011l-0.627,0.316c-0.176,0.089-0.291,0.003-0.254-0.191l0.13-0.69
	c0.037-0.194-0.047-0.468-0.186-0.608l-0.495-0.499c-0.139-0.14-0.093-0.276,0.103-0.301l0.697-0.089
	c0.196-0.025,0.43-0.189,0.521-0.365l0.321-0.624c0.09-0.176,0.234-0.173,0.318,0.005L21.61,56.752z"/>
<path fill="#F1C40F" d="M21.61,66.161c0.084,0.179,0.313,0.351,0.508,0.382l0.693,0.113c0.195,0.032,0.237,0.169,0.093,0.304
	l-0.511,0.482c-0.144,0.135-0.237,0.406-0.207,0.602l0.107,0.694c0.03,0.195-0.087,0.277-0.26,0.183l-0.616-0.337
	c-0.173-0.095-0.46-0.1-0.636-0.011l-0.627,0.316c-0.176,0.089-0.291,0.003-0.254-0.191l0.13-0.69
	c0.037-0.194-0.047-0.468-0.186-0.608l-0.495-0.5c-0.139-0.14-0.093-0.276,0.103-0.301l0.697-0.089
	c0.196-0.025,0.43-0.189,0.521-0.365l0.321-0.624c0.09-0.176,0.234-0.173,0.318,0.005L21.61,66.161z"/>
<path fill="#F1C40F" d="M26.207,49.755c0.084,0.179,0.313,0.351,0.508,0.382l0.693,0.113c0.195,0.032,0.237,0.169,0.093,0.304
	l-0.511,0.482c-0.144,0.135-0.237,0.406-0.207,0.602l0.107,0.694c0.03,0.195-0.087,0.277-0.26,0.183l-0.616-0.337
	c-0.173-0.095-0.46-0.1-0.636-0.011l-0.627,0.316c-0.176,0.089-0.291,0.003-0.254-0.191l0.13-0.69
	c0.037-0.194-0.047-0.468-0.186-0.608l-0.495-0.499c-0.139-0.14-0.093-0.276,0.103-0.301l0.697-0.089
	c0.196-0.025,0.43-0.189,0.521-0.365l0.321-0.624c0.09-0.176,0.234-0.173,0.318,0.005L26.207,49.755z"/>
<path fill="#F1C40F" d="M35.055,75.255c0.084,0.179,0.313,0.351,0.508,0.382l0.693,0.113c0.195,0.032,0.237,0.169,0.093,0.304
	l-0.511,0.482c-0.144,0.135-0.237,0.406-0.207,0.602l0.107,0.694c0.03,0.195-0.087,0.277-0.26,0.183l-0.616-0.337
	c-0.173-0.095-0.46-0.1-0.636-0.011L33.6,77.983c-0.176,0.089-0.291,0.003-0.254-0.191l0.13-0.69
	c0.037-0.194-0.047-0.468-0.186-0.608l-0.495-0.499c-0.139-0.14-0.093-0.276,0.103-0.301l0.697-0.089
	c0.196-0.025,0.43-0.189,0.521-0.365l0.321-0.624c0.09-0.176,0.234-0.173,0.318,0.005L35.055,75.255z"/>
<path fill="#F1C40F" d="M26.207,72.687c0.084,0.179,0.313,0.351,0.508,0.382l0.693,0.113c0.195,0.032,0.237,0.169,0.093,0.304
	l-0.511,0.482c-0.144,0.135-0.237,0.406-0.207,0.602l0.107,0.694c0.03,0.195-0.087,0.277-0.26,0.183l-0.616-0.337
	c-0.173-0.095-0.46-0.1-0.636-0.011l-0.627,0.316c-0.176,0.089-0.291,0.003-0.254-0.191l0.13-0.69
	c0.037-0.194-0.047-0.468-0.186-0.608l-0.495-0.499c-0.139-0.14-0.093-0.276,0.103-0.301l0.697-0.089
	c0.196-0.025,0.43-0.189,0.521-0.365l0.321-0.624c0.09-0.176,0.234-0.173,0.318,0.005L26.207,72.687z"/>
<path fill="#F1C40F" d="M47.774,56.117c0.084-0.179,0.228-0.181,0.318-0.005l0.321,0.624c0.09,0.176,0.325,0.34,0.521,0.365
	l0.697,0.089c0.196,0.025,0.243,0.161,0.103,0.301L49.24,57.99c-0.139,0.14-0.223,0.414-0.186,0.608l0.13,0.69
	c0.037,0.194-0.078,0.28-0.254,0.191l-0.627-0.316c-0.176-0.089-0.463-0.084-0.636,0.011l-0.616,0.337
	c-0.173,0.095-0.29,0.013-0.26-0.183l0.107-0.694c0.03-0.195-0.063-0.466-0.207-0.602L46.18,57.55
	c-0.144-0.135-0.102-0.272,0.093-0.304l0.693-0.113c0.195-0.032,0.424-0.204,0.508-0.382L47.774,56.117z"/>
<path fill="#F1C40F" d="M47.774,65.525c0.084-0.179,0.228-0.181,0.318-0.005l0.321,0.624c0.09,0.176,0.325,0.34,0.521,0.365
	l0.697,0.089c0.196,0.025,0.243,0.161,0.103,0.301l-0.495,0.499c-0.139,0.14-0.223,0.414-0.186,0.608l0.13,0.69
	c0.037,0.194-0.078,0.28-0.254,0.191l-0.627-0.316c-0.176-0.089-0.463-0.084-0.636,0.011l-0.616,0.337
	c-0.173,0.095-0.29,0.013-0.26-0.183l0.107-0.694c0.03-0.195-0.063-0.466-0.207-0.602l-0.511-0.482
	c-0.144-0.135-0.102-0.272,0.093-0.304l0.693-0.113c0.195-0.032,0.424-0.204,0.508-0.382L47.774,65.525z"/>
<path fill="#F1C40F" d="M43.176,49.119c0.084-0.179,0.228-0.181,0.318-0.005l0.321,0.624c0.09,0.176,0.325,0.34,0.521,0.365
	l0.697,0.089c0.196,0.025,0.243,0.161,0.103,0.301l-0.495,0.499c-0.139,0.14-0.223,0.414-0.186,0.608l0.13,0.69
	c0.037,0.194-0.078,0.28-0.254,0.191l-0.627-0.316c-0.176-0.089-0.463-0.084-0.636,0.011l-0.616,0.337
	c-0.173,0.095-0.29,0.013-0.26-0.183l0.107-0.694c0.03-0.195-0.063-0.466-0.207-0.602l-0.511-0.482
	c-0.144-0.135-0.102-0.272,0.093-0.304l0.693-0.113c0.195-0.032,0.424-0.204,0.508-0.382L43.176,49.119z"/>
<path fill="#F1C40F" d="M43.176,72.052c0.084-0.179,0.228-0.181,0.318-0.005l0.321,0.624c0.09,0.176,0.325,0.34,0.521,0.365
	l0.697,0.089c0.196,0.025,0.243,0.161,0.103,0.301l-0.495,0.499c-0.139,0.14-0.223,0.414-0.186,0.608l0.13,0.69
	c0.037,0.194-0.078,0.28-0.254,0.191l-0.627-0.316c-0.176-0.089-0.463-0.084-0.636,0.011l-0.616,0.337
	c-0.173,0.095-0.29,0.013-0.26-0.183l0.107-0.694c0.03-0.195-0.063-0.466-0.207-0.602l-0.511-0.482
	c-0.144-0.135-0.102-0.272,0.093-0.304l0.693-0.113c0.195-0.032,0.424-0.204,0.508-0.382L43.176,72.052z"/>
</svg>
