<?xml version="1.0" encoding="utf-8"?>
<!-- Generator: Adobe Illustrator 17.0.2, SVG Export Plug-In . SVG Version: 6.00 Build 0)  -->
<!DOCTYPE svg PUBLIC "-//W3C//DTD SVG 1.1//EN" "http://www.w3.org/Graphics/SVG/1.1/DTD/svg11.dtd">
<svg version="1.1" id="Layer_1" xmlns="http://www.w3.org/2000/svg" xmlns:xlink="http://www.w3.org/1999/xlink" x="0px" y="0px"
	 width="100px" height="100px" viewBox="0 0 100 100" enable-background="new 0 0 100 100" xml:space="preserve">
<path fill="#2980B9" d="M100.052,76c0,4.418-3.582,8-8,8h-84c-4.418,0-8-3.582-8-8V24c0-4.418,3.582-8,8-8h84c4.418,0,8,3.582,8,8
	V76z"/>
<path fill="#F1C40F" d="M100.052,76c0,4.418-3.582,8-8,8h-84c-4.418,0-8-3.582-8-8V51h100V76z"/>
<rect x="0.052" y="34.5" fill="#FFFFFF" width="100" height="17"/>
<rect x="0.052" y="51.5" fill="#27AE60" width="100" height="17"/>
<rect x="41.552" y="16" fill="#E74C3C" width="17" height="68"/>
<path fill="#F1C40F" d="M16.775,20.684c0.347,0.734,1.287,1.441,2.089,1.572l2.848,0.463c0.802,0.13,0.974,0.693,0.383,1.249
	l-2.1,1.979c-0.591,0.557-0.973,1.669-0.849,2.472l0.44,2.852c0.124,0.802-0.357,1.14-1.07,0.75l-2.531-1.386
	c-0.712-0.39-1.889-0.41-2.613-0.044l-2.577,1.299c-0.725,0.366-1.195,0.012-1.044-0.786l0.536-2.836
	c0.151-0.798-0.193-1.922-0.766-2.499L7.489,23.72c-0.572-0.577-0.381-1.133,0.425-1.236l2.862-0.367
	c0.805-0.103,1.769-0.778,2.14-1.5l1.321-2.566c0.371-0.722,0.96-0.712,1.307,0.022L16.775,20.684z"/>
</svg>
