<?xml version="1.0" encoding="utf-8"?>
<!-- Generator: Adobe Illustrator 17.0.2, SVG Export Plug-In . SVG Version: 6.00 Build 0)  -->
<!DOCTYPE svg PUBLIC "-//W3C//DTD SVG 1.1//EN" "http://www.w3.org/Graphics/SVG/1.1/DTD/svg11.dtd">
<svg version="1.1" id="Layer_1" xmlns="http://www.w3.org/2000/svg" xmlns:xlink="http://www.w3.org/1999/xlink" x="0px" y="0px"
	 width="100px" height="100px" viewBox="0 0 100 100" enable-background="new 0 0 100 100" xml:space="preserve">
<path fill="#F1C40F" d="M100.052,76c0,4.418-3.582,8-8,8h-84c-4.418,0-8-3.582-8-8V24c0-4.418,3.582-8,8-8h84c4.418,0,8,3.582,8,8
	V76z"/>
<path fill="#2980B9" d="M100.052,76c0,4.418-3.582,8-8,8h-84c-4.418,0-8-3.582-8-8V51h100V76z"/>
<rect x="0.052" y="33.125" fill="#FFFFFF" width="100" height="17"/>
<rect x="0.052" y="50.125" fill="#E74C3C" width="100" height="17.375"/>
<path fill="#2ECC71" d="M3.85,82.865l37.817-32.83L3.85,17.205C1.545,18.609,0,21.138,0,24.035v26v26
	C0,78.931,1.545,81.461,3.85,82.865z"/>
<path fill="#FFFFFF" d="M21.473,38.903c0.108,0.229,0.401,0.449,0.651,0.49l0.887,0.144c0.25,0.041,0.303,0.216,0.119,0.389
	l-0.654,0.617c-0.184,0.174-0.303,0.52-0.265,0.77l0.137,0.889c0.039,0.25-0.111,0.355-0.333,0.234l-0.789-0.432
	c-0.222-0.122-0.589-0.128-0.814-0.014l-0.803,0.405c-0.226,0.114-0.372,0.004-0.325-0.245l0.167-0.884
	c0.047-0.249-0.06-0.599-0.239-0.779l-0.633-0.638c-0.178-0.18-0.119-0.353,0.132-0.385l0.892-0.114
	c0.251-0.032,0.551-0.242,0.667-0.467l0.412-0.8c0.116-0.225,0.299-0.222,0.407,0.007L21.473,38.903z"/>
<path fill="#FFFFFF" d="M21.473,44.903c0.108,0.229,0.401,0.449,0.651,0.49l0.887,0.144c0.25,0.041,0.303,0.216,0.119,0.389
	l-0.654,0.617c-0.184,0.174-0.303,0.52-0.265,0.77l0.137,0.889c0.039,0.25-0.111,0.355-0.333,0.234l-0.789-0.432
	c-0.222-0.122-0.589-0.128-0.814-0.014l-0.803,0.405c-0.226,0.114-0.372,0.004-0.325-0.245l0.167-0.884
	c0.047-0.249-0.06-0.599-0.239-0.779l-0.633-0.638c-0.178-0.18-0.119-0.353,0.132-0.385l0.892-0.114
	c0.251-0.032,0.551-0.242,0.667-0.467l0.412-0.8c0.116-0.225,0.299-0.222,0.407,0.007L21.473,44.903z"/>
<path fill="#FFFFFF" d="M21.473,56.903c0.108,0.229,0.401,0.449,0.651,0.49l0.887,0.144c0.25,0.041,0.303,0.216,0.119,0.389
	l-0.654,0.617c-0.184,0.174-0.303,0.52-0.265,0.77l0.137,0.889c0.039,0.25-0.111,0.355-0.333,0.234l-0.789-0.432
	c-0.222-0.122-0.589-0.128-0.814-0.014l-0.803,0.405c-0.226,0.114-0.372,0.004-0.325-0.245l0.167-0.884
	c0.047-0.249-0.06-0.599-0.239-0.779l-0.633-0.638c-0.178-0.18-0.119-0.353,0.132-0.385l0.892-0.114
	c0.251-0.032,0.551-0.242,0.667-0.467l0.412-0.8c0.116-0.225,0.299-0.222,0.407,0.007L21.473,56.903z"/>
<path fill="#FFFFFF" d="M21.473,50.903c0.108,0.229,0.401,0.449,0.651,0.49l0.887,0.144c0.25,0.041,0.303,0.216,0.119,0.389
	l-0.654,0.617c-0.184,0.174-0.303,0.52-0.265,0.77l0.137,0.889c0.039,0.25-0.111,0.355-0.333,0.234l-0.789-0.432
	c-0.222-0.122-0.589-0.128-0.814-0.014l-0.803,0.405c-0.226,0.114-0.372,0.004-0.325-0.245l0.167-0.884
	c0.047-0.249-0.06-0.599-0.239-0.779l-0.633-0.638c-0.178-0.18-0.119-0.353,0.132-0.385l0.892-0.114
	c0.251-0.032,0.551-0.242,0.667-0.467l0.412-0.8c0.116-0.225,0.299-0.222,0.407,0.007L21.473,50.903z"/>
<g>
	<path fill="#FFFFFF" d="M17.555,63.366c-7.724,0-14.008-6.284-14.008-14.008S9.831,35.35,17.555,35.35
		c1.038,0,2.084,0.119,3.112,0.352c0.087,0.019,0.149,0.095,0.149,0.186c0,0.09-0.062,0.167-0.149,0.187
		c-6.239,1.417-10.596,6.879-10.596,13.283s4.357,11.867,10.596,13.283c0.088,0.021,0.149,0.098,0.149,0.187
		s-0.061,0.166-0.148,0.187C19.642,63.248,18.595,63.366,17.555,63.366z"/>
</g>
</svg>
