<?xml version="1.0" encoding="utf-8"?>
<!-- Generator: Adobe Illustrator 17.0.2, SVG Export Plug-In . SVG Version: 6.00 Build 0)  -->
<!DOCTYPE svg PUBLIC "-//W3C//DTD SVG 1.1//EN" "http://www.w3.org/Graphics/SVG/1.1/DTD/svg11.dtd">
<svg version="1.1" id="Layer_1" xmlns="http://www.w3.org/2000/svg" xmlns:xlink="http://www.w3.org/1999/xlink" x="0px" y="0px"
	 width="100px" height="100px" viewBox="0 0 100 100" enable-background="new 0 0 100 100" xml:space="preserve">
<path fill="#2980B9" d="M92,16H8c-4.418,0-8,3.582-8,8v52c0,4.418,3.582,8,8,8h84c4.418,0,8-3.582,8-8V24
	C100,19.582,96.418,16,92,16z"/>
<path fill="#3498DB" d="M92,16L0,76c0,4.418,3.582,8,8,8h84c4.418,0,8-3.582,8-8V24C100,19.582,96.418,16,92,16z"/>
<path fill="#F1C40F" d="M92,16h-7.5L0,70.375V76c0,4.418,3.582,8,8,8h7.875L100,29.375V24C100,19.582,96.418,16,92,16z"/>
<path fill="#E74C3C" d="M92,16L0,76c0,4.418,3.582,8,8,8l92-60C100,19.582,96.418,16,92,16z"/>
<path fill="#F1C40F" d="M22.023,26.64c0.561,1.187,2.082,2.332,3.378,2.542l4.607,0.749c1.297,0.211,1.575,1.121,0.62,2.021
	l-3.397,3.201c-0.955,0.901-1.574,2.7-1.374,3.998l0.711,4.613c0.2,1.298-0.578,1.844-1.731,1.213l-4.094-2.241
	c-1.151-0.63-3.055-0.663-4.227-0.071l-4.168,2.102c-1.173,0.591-1.933,0.019-1.689-1.272l0.867-4.587
	c0.244-1.291-0.313-3.11-1.238-4.042l-3.287-3.314c-0.925-0.933-0.616-1.832,0.688-2l4.63-0.594
	c1.303-0.167,2.861-1.259,3.462-2.427l2.136-4.15c0.601-1.168,1.552-1.151,2.114,0.036L22.023,26.64z"/>
</svg>
