<?xml version="1.0" encoding="utf-8"?>
<!-- Generator: Adobe Illustrator 17.0.2, SVG Export Plug-In . SVG Version: 6.00 Build 0)  -->
<!DOCTYPE svg PUBLIC "-//W3C//DTD SVG 1.1//EN" "http://www.w3.org/Graphics/SVG/1.1/DTD/svg11.dtd">
<svg version="1.1" id="Layer_1" xmlns="http://www.w3.org/2000/svg" xmlns:xlink="http://www.w3.org/1999/xlink" x="0px" y="0px"
	 width="100px" height="100px" viewBox="0 0 100 100" enable-background="new 0 0 100 100" xml:space="preserve">
<path fill="#E74C3C" d="M100,76c0,4.418-3.582,8-8,8H8c-4.418,0-8-3.582-8-8V24c0-4.418,3.582-8,8-8h84c4.418,0,8,3.582,8,8V76z"/>
<path fill="#2C3E50" d="M100,76c0,4.418-3.582,8-8,8H8c-4.418,0-8-3.582-8-8V61h100V76z"/>
<rect y="38.708" fill="#FFFFFF" width="100" height="23"/>
<path fill="#F1C40F" d="M47.558,58.806c-0.55,0-1.05-0.347-1.243-0.861l-3.381-9.017c-0.153-0.408-0.096-0.864,0.152-1.222
	c0.247-0.357,0.655-0.571,1.09-0.571h3.802v-3.332c0-1.206,0.981-2.187,2.187-2.187c0.002,0,0.1,0.006,0.113,0.006
	c1.833,0,3.631,1.633,3.708,1.702c0.05,0.046,0.073,0.115,0.062,0.182s-0.057,0.124-0.119,0.15l-1.575,0.665v2.813h3.471
	c0.436,0,0.843,0.214,1.09,0.571c0.247,0.356,0.305,0.813,0.153,1.223l-3.381,9.018c-0.195,0.516-0.694,0.861-1.243,0.861H47.558z"
	/>
</svg>
