<?xml version="1.0" encoding="utf-8"?>
<!-- Generator: Adobe Illustrator 17.0.2, SVG Export Plug-In . SVG Version: 6.00 Build 0)  -->
<!DOCTYPE svg PUBLIC "-//W3C//DTD SVG 1.1//EN" "http://www.w3.org/Graphics/SVG/1.1/DTD/svg11.dtd">
<svg version="1.1" id="Layer_1" xmlns="http://www.w3.org/2000/svg" xmlns:xlink="http://www.w3.org/1999/xlink" x="0px" y="0px"
	 width="100px" height="100px" viewBox="0 0 100 100" enable-background="new 0 0 100 100" xml:space="preserve">
<path fill="#27AE60" d="M100,76c0,4.418-3.582,8-8,8H8c-4.418,0-8-3.582-8-8V24c0-4.418,3.582-8,8-8h84c4.418,0,8,3.582,8,8V76z"/>
<path fill="#E74C3C" d="M100,76c0,4.418-3.582,8-8,8H8c-4.418,0-8-3.582-8-8V61h100V76z"/>
<rect y="38.708" fill="#FFFFFF" width="100" height="23"/>
<path fill="#2980B9" d="M3.85,82.865l25.817-32.83L3.85,17.205C1.545,18.609,0,21.138,0,24.035v26v26
	C0,78.931,1.545,81.461,3.85,82.865z"/>
<g>
	<path fill="#D35400" d="M52.022,46.364c0-0.258-0.209-0.467-0.467-0.467h-1.4h-1.4c-0.258,0-0.467,0.209-0.467,0.467
		c0,0,1.212,1.42,1.212,3.734c0,2.314-1.212,7.584-1.212,7.584c0,0.258,0.209,0.467,0.467,0.467h1.4h1.4
		c0.258,0,0.467-0.209,0.467-0.467c0,0-1.303-5.27-1.303-7.584C50.719,47.783,52.022,46.364,52.022,46.364z"/>
	<ellipse fill="#27AE60" cx="50.389" cy="44.38" rx="2.917" ry="2.45"/>
	<ellipse fill="#27AE60" cx="46.889" cy="45.314" rx="2.917" ry="2.45"/>
	<ellipse fill="#27AE60" cx="53.889" cy="45.314" rx="2.917" ry="2.45"/>
</g>
</svg>
