<?xml version="1.0" encoding="utf-8"?>
<!-- Generator: Adobe Illustrator 17.0.2, SVG Export Plug-In . SVG Version: 6.00 Build 0)  -->
<!DOCTYPE svg PUBLIC "-//W3C//DTD SVG 1.1//EN" "http://www.w3.org/Graphics/SVG/1.1/DTD/svg11.dtd">
<svg version="1.1" id="Layer_1" xmlns="http://www.w3.org/2000/svg" xmlns:xlink="http://www.w3.org/1999/xlink" x="0px" y="0px"
	 width="100px" height="100px" viewBox="0 0 100 100" enable-background="new 0 0 100 100" xml:space="preserve">
<path fill="#2ECC71" d="M100,76c0,4.418-3.582,8-8,8H8c-4.418,0-8-3.582-8-8V24c0-4.418,3.582-8,8-8h84c4.418,0,8,3.582,8,8V76z"/>
<path fill="#3498DB" d="M100,76c0,4.418-3.582,8-8,8H8c-4.418,0-8-3.582-8-8V50h100V76z"/>
<path fill="#E74C3C" d="M3.85,82.865L100,50.035L3.85,17.205C1.545,18.609,0,21.138,0,24.035v26v26
	C0,78.931,1.545,81.461,3.85,82.865z"/>
<path fill="#FFC726" d="M43.118,52.676l-0.405-0.055c0.46-0.69,1.271-2.15,0.844-3.337L43.43,48.93l-0.367,0.016
	c0.303-0.775,0.699-2.199,0.078-3.231l-0.193-0.322l-0.395,0.077c-0.027,0.005-0.05,0.013-0.073,0.02
	c0.127-0.769,0.248-2.349-0.628-3.3l-0.256-0.278l-0.37,0.139c-0.032,0.014-0.063,0.033-0.096,0.048
	c-0.057-0.802-0.317-2.481-1.495-3.291l-0.317-0.216l-0.325,0.206c-0.022,0.015-0.042,0.032-0.064,0.046
	c-0.252-0.738-0.918-2.288-2.227-2.853l-0.36-0.155l-0.271,0.266c-0.046,0.046-0.087,0.101-0.133,0.151
	c-0.686-1.085-1.811-2.251-3.084-2.501l-0.398-0.078l-0.194,0.323c-0.082,0.137-0.147,0.294-0.203,0.46
	c-0.994-0.907-2.434-1.789-3.748-1.749l-0.417,0.012l-0.093,0.369c-0.047,0.195-0.058,0.412-0.053,0.638l-1.409-0.065l-1.412,0.065
	c0.008-0.227-0.002-0.443-0.052-0.638l-0.091-0.369l-0.417-0.012c-1.314-0.04-2.753,0.842-3.749,1.749
	c-0.057-0.166-0.122-0.323-0.202-0.46l-0.195-0.323l-0.396,0.078c-1.274,0.25-2.399,1.416-3.086,2.503
	c-0.044-0.052-0.085-0.107-0.133-0.153l-0.271-0.266l-0.361,0.155c-1.307,0.565-1.975,2.115-2.227,2.853
	c-0.023-0.015-0.04-0.031-0.062-0.046l-0.324-0.206l-0.317,0.216c-1.176,0.81-1.438,2.489-1.496,3.291
	c-0.031-0.015-0.063-0.034-0.097-0.048l-0.368-0.139l-0.256,0.278c-0.877,0.951-0.755,2.53-0.628,3.3
	c-0.022-0.007-0.046-0.015-0.071-0.02L9.73,45.392l-0.193,0.322c-0.621,1.033-0.224,2.456,0.077,3.231L9.249,48.93L9.12,49.284
	c-0.427,1.187,0.384,2.647,0.846,3.337l-0.41,0.055l-0.038,0.382c-0.122,1.184,0.907,2.394,1.559,3.035l-0.408,0.124l0.048,0.39
	c0.154,1.26,1.604,2.339,2.373,2.827c-0.018,0.01-0.038,0.017-0.057,0.025l-0.378,0.21l0.151,0.376
	c0.421,1.039,1.858,1.861,3.177,2.333c-0.03,0.027-0.067,0.048-0.096,0.074l-0.317,0.287l0.255,0.334
	c0.922,1.21,3.301,1.626,4.561,1.683c0.59,0.026,1.152-0.053,1.631-0.229l0.438-0.16c0.098,0.035,0.191,0.044,0.287,0.071
	c-0.659,0.654-1.058,1.484-1.04,2.363c0.006,0.274,0.229,0.494,0.504,0.494c0.001,0,8.262-0.033,8.262-0.033
	c0.267-0.001,0.486-0.21,0.501-0.476c0.05-0.878-0.331-1.7-0.995-2.359c0.087-0.025,0.169-0.033,0.257-0.065l0.427,0.165
	c0.478,0.176,1.044,0.256,1.631,0.229c1.26-0.057,3.639-0.473,4.561-1.683l0.254-0.334l-0.318-0.287
	c-0.027-0.026-0.062-0.047-0.094-0.074c1.32-0.472,2.757-1.293,3.176-2.333l0.151-0.376l-0.378-0.21
	c-0.018-0.009-0.037-0.016-0.057-0.025c0.771-0.49,2.221-1.567,2.373-2.827l0.049-0.39l-0.407-0.124
	c0.652-0.641,1.681-1.85,1.558-3.035L43.118,52.676z M36.277,53.806l-0.008,0.144l-0.02,0.468c-0.896,0.75-1.54,1.832-1.815,2.475
	c0,0-0.13,0.354-0.247,0.675c-1.023,0.532-1.901,1.371-2.34,1.903c-0.001,0.001-0.189,0.253-0.369,0.499
	c-1.081,0.23-2.117,0.71-2.692,1.053c-0.887,0.527-1.422,1.326-1.45,2.054l-0.14,0.044l-0.858,0.389
	c-0.27-0.126-0.551-0.255-0.855-0.389l-0.142-0.064c-0.037-0.723-0.569-1.512-1.449-2.034c-0.616-0.366-1.636-0.837-2.697-1.061
	l-0.362-0.49c-0.438-0.532-1.319-1.37-2.342-1.903l-0.247-0.678c-0.275-0.641-0.917-1.721-1.813-2.471l-0.021-0.473l-0.009-0.14
	c-0.079-0.644-0.369-1.738-0.956-2.629l0.15-0.522c0.159-0.699,0.247-1.835-0.034-2.837l0.276-0.407l0.088-0.138
	c0.385-0.67,0.853-1.824,0.843-2.899l0.6-0.626c0.501-0.587,1.169-1.614,1.399-2.645l0.463-0.295l0.174-0.117
	c0.602-0.445,1.446-1.232,1.957-2.115l0.493-0.162c1.146-0.379,3.175-1.368,3.678-2.708l0.03,0.014l0.777-0.022l0.767,0.021
	l0.037-0.017c0.503,1.343,2.535,2.332,3.683,2.71l0.49,0.162c0.511,0.883,1.357,1.671,1.956,2.115
	c-0.001-0.001,0.177,0.119,0.177,0.119l0.462,0.293c0.227,1.033,0.897,2.06,1.4,2.649l0.601,0.627c0,0.011-0.002,0.023-0.002,0.033
	c0,1.064,0.461,2.202,0.842,2.867l0.086,0.133l0.279,0.41c-0.281,1.003-0.191,2.14-0.034,2.84l0.006,0.018l0.023,0.081l0.131,0.405
	C36.649,52.058,36.358,53.157,36.277,53.806z"/>
</svg>
