<?xml version="1.0" encoding="utf-8"?>
<!-- Generator: Adobe Illustrator 17.0.2, SVG Export Plug-In . SVG Version: 6.00 Build 0)  -->
<!DOCTYPE svg PUBLIC "-//W3C//DTD SVG 1.1//EN" "http://www.w3.org/Graphics/SVG/1.1/DTD/svg11.dtd">
<svg version="1.1" id="Layer_1" xmlns="http://www.w3.org/2000/svg" xmlns:xlink="http://www.w3.org/1999/xlink" x="0px" y="0px"
	 width="100px" height="100px" viewBox="0 0 100 100" enable-background="new 0 0 100 100" xml:space="preserve">
<path fill="#E74C3C" d="M100,76c0,4.418-3.582,8-8,8H8c-4.418,0-8-3.582-8-8V24c0-4.418,3.582-8,8-8h84c4.418,0,8,3.582,8,8V76z"/>
<path fill="#27AE60" d="M100,76c0,4.418-3.582,8-8,8H8c-4.418,0-8-3.582-8-8V61h100V76z"/>
<rect y="38.5" fill="#F1C40F" width="100" height="23"/>
<circle fill="#2980B9" cx="50" cy="50" r="18.25"/>
<path fill="#F1C40F" d="M44.117,42.333c-0.159,0-0.315-0.075-0.412-0.216l-2.174-3.15c-0.157-0.228-0.1-0.539,0.127-0.696
	c0.227-0.158,0.538-0.1,0.696,0.127l2.174,3.15c0.157,0.228,0.1,0.539-0.127,0.696C44.313,42.304,44.214,42.333,44.117,42.333z"/>
<path fill="#F1C40F" d="M37.043,53.895c-0.222,0-0.424-0.148-0.483-0.373c-0.07-0.268,0.09-0.541,0.357-0.61l3.894-1.021
	c0.267-0.072,0.541,0.089,0.611,0.356c0.07,0.268-0.09,0.541-0.357,0.61l-3.894,1.021C37.128,53.89,37.085,53.895,37.043,53.895z"/>
<path fill="#F1C40F" d="M62.956,53.895c-0.043,0-0.087-0.006-0.131-0.018l-3.768-1.021c-0.267-0.072-0.424-0.347-0.352-0.613
	c0.073-0.266,0.344-0.423,0.613-0.352l3.768,1.021c0.267,0.072,0.424,0.347,0.352,0.613C63.378,53.748,63.177,53.895,62.956,53.895z
	"/>
<path fill="#F1C40F" d="M56.016,42.655c-0.099,0-0.197-0.029-0.284-0.088c-0.228-0.157-0.284-0.468-0.127-0.696l2.396-3.472
	c0.156-0.229,0.468-0.284,0.695-0.127c0.228,0.157,0.284,0.468,0.127,0.696l-2.396,3.472C56.33,42.58,56.174,42.655,56.016,42.655z"
	/>
<path fill="#F1C40F" d="M49.758,63.762c-0.276,0-0.5-0.224-0.5-0.5v-4.023c0-0.276,0.224-0.5,0.5-0.5s0.5,0.224,0.5,0.5v4.023
	C50.258,63.538,50.034,63.762,49.758,63.762z"/>
<path fill="#F1C40F" d="M62.88,45.628c-0.227-0.741-0.922-1.257-1.906-1.417l-4.435-0.722c-0.915-0.148-2.11-1.047-2.507-1.886
	l-1.917-4.065c-0.433-0.915-1.133-1.439-1.919-1.439c-0.763,0-1.458,0.501-1.908,1.375l-2.056,3.994
	c-0.424,0.825-1.648,1.684-2.569,1.801l-4.456,0.571c-0.99,0.127-1.703,0.621-1.954,1.354s0.007,1.559,0.709,2.266l3.163,3.189
	c0.654,0.658,1.092,2.088,0.919,3l-0.835,4.415c-0.193,1.026,0.106,1.652,0.392,1.996c0.583,0.701,1.613,0.838,2.667,0.305
	l4.012-2.022c0.795-0.4,2.355-0.373,3.136,0.053l3.94,2.158c0.455,0.248,0.899,0.374,1.32,0.374c0.548,0,1.036-0.218,1.376-0.612
	c0.286-0.334,0.594-0.944,0.438-1.96l-0.685-4.438c-0.142-0.917,0.345-2.331,1.019-2.967l3.27-3.081
	C62.821,47.187,63.107,46.369,62.88,45.628z M53.895,44.753l1.366,6.875l-5.48,4.149l-5.179-4.217l1.602-6.887L53.895,44.753z
	 M50.066,38.391c0.047-0.091,0.092-0.16,0.121-0.207c0.035,0.05,0.077,0.118,0.12,0.209l1.917,4.064
	c0.045,0.094,0.105,0.186,0.159,0.279l-4.56-0.047c0.064-0.101,0.134-0.202,0.188-0.305L50.066,38.391z M39.382,46.052
	c-0.069-0.069-0.118-0.13-0.153-0.179c0.058-0.018,0.135-0.036,0.232-0.048l4.455-0.571c0.034-0.004,0.069-0.016,0.103-0.021
	l-1.051,4.517c-0.132-0.184-0.272-0.356-0.423-0.508L39.382,46.052z M43.369,58.581c-0.09,0.045-0.163,0.073-0.219,0.09
	c0.001-0.061,0.008-0.139,0.026-0.235l0.754-3.984l0.168-0.723l3.41,2.777c-0.041,0.019-0.088,0.033-0.128,0.054L43.369,58.581z
	 M56.317,58.8l-3.939-2.157c-0.083-0.046-0.179-0.081-0.268-0.121l3.584-2.713l0.207,1.044l0.025-0.005l0.588,3.815
	c0.015,0.097,0.02,0.176,0.019,0.236C56.478,58.878,56.405,58.848,56.317,58.8z M56.678,59.929v-1c0.001,0,0.002,0,0.003,0
	L56.678,59.929z M60.724,46.415l-3.271,3.081c-0.168,0.158-0.323,0.343-0.471,0.538l-0.915-4.607c0.05,0.01,0.102,0.029,0.152,0.037
	l4.435,0.721c0.097,0.016,0.172,0.036,0.229,0.056C60.847,46.289,60.795,46.348,60.724,46.415z"/>
</svg>
