<?xml version="1.0" encoding="utf-8"?>
<!-- Generator: Adobe Illustrator 17.0.2, SVG Export Plug-In . SVG Version: 6.00 Build 0)  -->
<!DOCTYPE svg PUBLIC "-//W3C//DTD SVG 1.1//EN" "http://www.w3.org/Graphics/SVG/1.1/DTD/svg11.dtd">
<svg version="1.1" id="Layer_1" xmlns="http://www.w3.org/2000/svg" xmlns:xlink="http://www.w3.org/1999/xlink" x="0px" y="0px"
	 width="100px" height="100px" viewBox="0 0 100 100" enable-background="new 0 0 100 100" xml:space="preserve">
<path fill="#E74C3C" d="M100,76.013c0,4.418-3.582,8-8,8H8c-4.418,0-8-3.582-8-8v-52c0-4.418,3.582-8,8-8h84c4.418,0,8,3.582,8,8
	V76.013z"/>
<path fill="#F1C40F" d="M100,76.013c0,4.418-3.582,8-8,8H34v-68h58c4.418,0,8,3.582,8,8V76.013z"/>
<path fill="#27AE60" d="M100,76.013c0,4.418-3.582,8-8,8H34V50l66,0.013V76.013z"/>
<path fill="#2C3E50" d="M19.82,43.19c0.43,0.909,1.594,1.785,2.587,1.947l3.528,0.574c0.993,0.161,1.206,0.858,0.475,1.548
	l-2.602,2.451c-0.731,0.69-1.205,2.068-1.052,3.062l0.545,3.533c0.153,0.994-0.443,1.412-1.325,0.929l-3.135-1.716
	c-0.882-0.483-2.339-0.507-3.237-0.055l-3.192,1.61c-0.898,0.453-1.48,0.015-1.294-0.974l0.664-3.513
	c0.187-0.988-0.24-2.381-0.948-3.095l-2.517-2.538c-0.709-0.714-0.472-1.403,0.527-1.531l3.545-0.455
	c0.997-0.128,2.191-0.964,2.651-1.858l1.636-3.178c0.46-0.895,1.189-0.882,1.619,0.027L19.82,43.19z"/>
</svg>
