<?xml version="1.0" encoding="utf-8"?>
<!-- Generator: Adobe Illustrator 17.0.2, SVG Export Plug-In . SVG Version: 6.00 Build 0)  -->
<!DOCTYPE svg PUBLIC "-//W3C//DTD SVG 1.1//EN" "http://www.w3.org/Graphics/SVG/1.1/DTD/svg11.dtd">
<svg version="1.1" id="Layer_1" xmlns="http://www.w3.org/2000/svg" xmlns:xlink="http://www.w3.org/1999/xlink" x="0px" y="0px"
	 width="100px" height="100px" viewBox="0 0 100 100" enable-background="new 0 0 100 100" xml:space="preserve">
<path fill="#2C3E50" d="M100,76c0,4.418-3.582,8-8,8H8c-4.418,0-8-3.582-8-8V24c0-4.418,3.582-8,8-8h84c4.418,0,8,3.582,8,8V76z"/>
<path fill="#27AE60" d="M100,76c0,4.418-3.582,8-8,8H8c-4.418,0-8-3.582-8-8V61h100V76z"/>
<rect y="38.708" fill="#FFFFFF" width="100" height="23"/>
<rect y="42.041" fill="#E74C3C" width="100" height="16.5"/>
<g id="spear">
	<g>
		<path id="spearshape" fill="#FFFFFF" d="M41.639,66.949l0.603,0.348l16.254-28.153c0.951-0.255,1.473-1.159,1.995-2.063
			c0.348-0.603,1.74-3.013,2.343-6.146c-2.411,2.089-3.803,4.499-4.151,5.102c-0.522,0.904-1.044,1.808-0.789,2.759L41.639,66.949z"
			/>
	</g>
	<g>
		<path id="spearshape_1_" fill="#FFFFFF" d="M41.639,66.949l0.603,0.348l16.254-28.153c0.951-0.255,1.473-1.159,1.995-2.063
			c0.348-0.603,1.74-3.013,2.343-6.146c-2.411,2.089-3.803,4.499-4.151,5.102c-0.522,0.904-1.044,1.808-0.789,2.759L41.639,66.949z"
			/>
	</g>
</g>
<g>
	<path id="spearshape_2_" fill="#FFFFFF" d="M61.528,66.949l-0.603,0.348L44.671,39.144c-0.951-0.255-1.473-1.159-1.995-2.063
		c-0.348-0.603-1.74-3.013-2.343-6.146c2.411,2.089,3.803,4.499,4.151,5.102c0.522,0.904,1.044,1.808,0.789,2.759L61.528,66.949z"/>
</g>
<path fill="#E74C3C" d="M51.583,33.719c-2.088,0-5.567,5.567-6.611,8.351v16.702c1.044,2.784,4.523,8.351,6.611,8.351
	s5.567-5.567,6.611-8.351V42.07C57.151,39.287,53.671,33.719,51.583,33.719z"/>
<path fill="#2C3E50" d="M58.195,42.07c-1.044,2.784-1.74,5.567-1.74,8.351s0.696,5.567,1.74,8.351
	c1.044-2.784,1.74-5.567,1.74-8.351S59.238,44.854,58.195,42.07z"/>
<path fill="#2C3E50" d="M43.232,50.421c0,2.784,0.696,5.567,1.74,8.351c1.044-2.784,1.74-5.567,1.74-8.351s-0.696-5.567-1.74-8.351
	C43.928,44.854,43.232,47.638,43.232,50.421z"/>
<ellipse fill="#FFFFFF" cx="51.583" cy="50.421" rx="1.392" ry="2.088"/>
<path fill="#FFFFFF" d="M51.931,67.071c0,0,1.392-2.784,1.392-7.307s-1.392-7.307-1.392-7.307V67.071z"/>
<path fill="#FFFFFF" d="M51.235,33.772c0,0-1.392,2.784-1.392,7.307s1.392,7.307,1.392,7.307V33.772z"/>
<path fill="#FFFFFF" d="M51.235,67.071V52.457c0,0-1.392,2.784-1.392,7.307S51.235,67.071,51.235,67.071z"/>
<path fill="#FFFFFF" d="M51.931,48.386c0,0,1.392-2.784,1.392-7.307s-1.392-7.307-1.392-7.307V48.386z"/>
</svg>
