<?xml version="1.0" encoding="utf-8"?>
<!-- Generator: Adobe Illustrator 17.0.2, SVG Export Plug-In . SVG Version: 6.00 Build 0)  -->
<!DOCTYPE svg PUBLIC "-//W3C//DTD SVG 1.1//EN" "http://www.w3.org/Graphics/SVG/1.1/DTD/svg11.dtd">
<svg version="1.1" id="Layer_1" xmlns="http://www.w3.org/2000/svg" xmlns:xlink="http://www.w3.org/1999/xlink" x="0px" y="0px"
	 width="100px" height="100px" viewBox="0 0 100 100" enable-background="new 0 0 100 100" xml:space="preserve">
<path fill="#3498DB" d="M100,76c0,4.418-3.582,8-8,8H8c-4.418,0-8-3.582-8-8V24c0-4.418,3.582-8,8-8h84c4.418,0,8,3.582,8,8V76z"/>
<path fill="#2ECC71" d="M100,76c0,4.418-3.582,8-8,8H8c-4.418,0-8-3.582-8-8V61h100V76z"/>
<rect y="38.708" fill="#FFFFFF" width="100" height="23"/>
<path fill="#2C3E50" d="M50.421,58.753c-4.225,0-7.179-1.823-7.208-1.841c-0.124-0.078-0.195-0.251-0.133-0.383l1.214-2.59
	c0.049-0.104,0.153-0.167,0.262-0.167c0.033,0,0.065,0.006,0.098,0.017l0.483,0.167l3.359-4.523
	c-0.226-0.502-1.14-2.652-0.961-4.276c0.168-1.528,0.953-2.559,2.169-2.869c0.008-0.054,0.032-0.105,0.069-0.147
	c0.093-0.103,0.389-0.4,0.751-0.409c0.4,0,0.725,0.331,0.761,0.368c0.043,0.045,0.076,0.108,0.086,0.171
	c1.237,0.27,1.95,1.19,2.179,2.802c0.224,1.567-0.606,3.585-0.913,4.264l3.46,4.576l0.398-0.173
	c0.037-0.016,0.077-0.024,0.115-0.024c0.106,0,0.208,0.059,0.259,0.16l1.256,2.559c0.062,0.126,0.024,0.279-0.09,0.362
	c-0.051,0.037-2.721,1.897-7.438,1.953L50.421,58.753z M49.706,43.237c-0.894,0.345-1.187,1.266-1.27,2.021
	c-0.119,1.081,0.381,2.552,0.688,3.327l0.409-0.55l0.005-1.316h-0.531c-0.116,0-0.22-0.069-0.266-0.176
	c-0.045-0.106-0.023-0.229,0.057-0.313l0.924-0.968L49.706,43.237z M52.002,48.5c0.319-0.806,0.798-2.242,0.647-3.297
	c-0.158-1.114-0.557-1.74-1.278-1.984l-0.005,1.999l1.018,0.956c0.086,0.081,0.114,0.207,0.071,0.317
	c-0.043,0.11-0.15,0.182-0.269,0.182h-0.538l0.005,1.366L52.002,48.5z"/>
</svg>
