<?xml version="1.0" encoding="utf-8"?>
<!-- Generator: Adobe Illustrator 17.0.2, SVG Export Plug-In . SVG Version: 6.00 Build 0)  -->
<!DOCTYPE svg PUBLIC "-//W3C//DTD SVG 1.1//EN" "http://www.w3.org/Graphics/SVG/1.1/DTD/svg11.dtd">
<svg version="1.1" id="Layer_1" xmlns="http://www.w3.org/2000/svg" xmlns:xlink="http://www.w3.org/1999/xlink" x="0px" y="0px"
	 width="100px" height="100px" viewBox="0 0 100 100" enable-background="new 0 0 100 100" xml:space="preserve">
<path fill="#E74C3C" d="M92.052,16h-84c-4.418,0-8,3.582-8,8v27v25c0,4.418,3.582,8,8,8h84c4.418,0,8-3.582,8-8V51V24
	C100.052,19.582,96.47,16,92.052,16z"/>
<path fill="#E74C3C" d="M92.052,16h-84c-4.418,0-8,3.582-8,8v27v25c0,4.418,3.582,8,8,8h84c4.418,0,8-3.582,8-8V51V24
	C100.052,19.582,96.47,16,92.052,16z"/>
<rect y="44.667" fill="#E74C3C" width="100" height="7.5"/>
<rect y="22.833" fill="#FFFFFF" width="100" height="6.18"/>
<rect y="34.833" fill="#FFFFFF" width="100" height="6.18"/>
<rect y="46.833" fill="#FFFFFF" width="100" height="6.18"/>
<rect y="58.833" fill="#FFFFFF" width="100" height="6.18"/>
<rect y="70.833" fill="#FFFFFF" width="100" height="6.18"/>
<path fill="#2980B9" d="M0.052,24v22.833h30.781V16H8.052C3.634,16,0.052,19.582,0.052,24z"/>
<path fill="#FFFFFF" d="M17.954,26.774c0.456,0.909,1.69,1.785,2.743,1.947l3.741,0.574c1.053,0.161,1.279,0.858,0.503,1.548
	l-2.758,2.451c-0.776,0.69-1.278,2.068-1.116,3.062l0.578,3.533c0.162,0.994-0.469,1.412-1.405,0.929L16.915,39.1
	c-0.935-0.483-2.48-0.507-3.432-0.055l-3.384,1.61c-0.952,0.453-1.569,0.015-1.371-0.974l0.704-3.513
	c0.198-0.988-0.254-2.381-1.005-3.095l-2.669-2.538c-0.751-0.714-0.5-1.403,0.558-1.531l3.759-0.455
	c1.058-0.128,2.323-0.964,2.811-1.858l1.735-3.178c0.488-0.895,1.26-0.882,1.716,0.027L17.954,26.774z"/>
</svg>
