<?xml version="1.0" encoding="utf-8"?>
<!-- Generator: Adobe Illustrator 17.0.2, SVG Export Plug-In . SVG Version: 6.00 Build 0)  -->
<!DOCTYPE svg PUBLIC "-//W3C//DTD SVG 1.1//EN" "http://www.w3.org/Graphics/SVG/1.1/DTD/svg11.dtd">
<svg version="1.1" id="Layer_1" xmlns="http://www.w3.org/2000/svg" xmlns:xlink="http://www.w3.org/1999/xlink" x="0px" y="0px"
	 width="100px" height="100px" viewBox="0 0 100 100" enable-background="new 0 0 100 100" xml:space="preserve">
<path fill="#E74C3C" d="M100,76c0,4.418-3.582,8-8,8H8c-4.418,0-8-3.582-8-8V24c0-4.418,3.582-8,8-8h84c4.418,0,8,3.582,8,8V76z"/>
<path fill="#27AE60" d="M100,76c0,4.418-3.582,8-8,8H8c-4.418,0-8-3.582-8-8V61h100V76z"/>
<rect y="35.167" fill="#2C3E50" width="100" height="29.667"/>
<path fill="#FFFFFF" d="M58.726,45.305c0.102-0.514,0.469-0.612,0.815-0.219l1.229,1.399c0.346,0.394,1.055,0.665,1.575,0.604
	l1.849-0.219c0.521-0.061,0.728,0.257,0.46,0.707l-0.951,1.601c-0.268,0.451-0.307,1.208-0.088,1.684l0.78,1.692
	c0.22,0.476-0.019,0.771-0.53,0.656l-1.817-0.41c-0.511-0.116-1.244,0.081-1.629,0.437l-1.368,1.264
	c-0.385,0.356-0.739,0.22-0.787-0.302l-0.172-1.854c-0.048-0.522-0.462-1.158-0.919-1.414l-1.625-0.91
	c-0.457-0.256-0.438-0.635,0.044-0.842l1.711-0.736c0.482-0.207,0.959-0.797,1.061-1.311L58.726,45.305z"/>
<path fill="#FFFFFF" d="M49.767,61.1c-6.12,0-11.1-4.98-11.1-11.1s4.98-11.1,11.1-11.1c2.981,0,5.779,1.166,7.88,3.285
	c0.172,0.173,0.185,0.448,0.03,0.636c-0.093,0.114-0.23,0.174-0.368,0.174c-0.09,0-0.181-0.026-0.262-0.079
	c-1.389-0.916-3.001-1.401-4.664-1.401c-4.678,0-8.484,3.806-8.484,8.483c0,4.678,3.806,8.484,8.484,8.484
	c1.661,0,3.274-0.485,4.664-1.402c0.08-0.053,0.171-0.079,0.262-0.079c0.138,0,0.275,0.06,0.368,0.175
	c0.155,0.189,0.142,0.463-0.03,0.636C55.545,59.933,52.746,61.1,49.767,61.1z"/>
</svg>
