<?xml version="1.0" encoding="utf-8"?>
<!-- Generator: Adobe Illustrator 17.0.2, SVG Export Plug-In . SVG Version: 6.00 Build 0)  -->
<!DOCTYPE svg PUBLIC "-//W3C//DTD SVG 1.1//EN" "http://www.w3.org/Graphics/SVG/1.1/DTD/svg11.dtd">
<svg version="1.1" id="Layer_1" xmlns="http://www.w3.org/2000/svg" xmlns:xlink="http://www.w3.org/1999/xlink" x="0px" y="0px"
	 width="100px" height="100px" viewBox="0 0 100 100" enable-background="new 0 0 100 100" xml:space="preserve">
<path fill="#E74C3C" d="M100.052,76c0,4.418-3.582,8-8,8h-84c-4.418,0-8-3.582-8-8V24c0-4.418,3.582-8,8-8h84c4.418,0,8,3.582,8,8
	V76z"/>
<path fill="#27AE60" d="M100.052,76c0,4.418-3.582,8-8,8h-84c-4.418,0-8-3.582-8-8V51h100V76z"/>
<rect x="0.052" y="34.5" fill="#2980B9" width="100" height="17"/>
<rect x="0.052" y="51.5" fill="#F1C40F" width="100" height="17"/>
</svg>
