<?xml version="1.0" encoding="utf-8"?>
<!-- Generator: Adobe Illustrator 17.0.2, SVG Export Plug-In . SVG Version: 6.00 Build 0)  -->
<!DOCTYPE svg PUBLIC "-//W3C//DTD SVG 1.1//EN" "http://www.w3.org/Graphics/SVG/1.1/DTD/svg11.dtd">
<svg version="1.1" id="Layer_1" xmlns="http://www.w3.org/2000/svg" xmlns:xlink="http://www.w3.org/1999/xlink" x="0px" y="0px"
	 width="100px" height="100px" viewBox="0 0 100 100" enable-background="new 0 0 100 100" xml:space="preserve">
<path fill="#27AE60" d="M92,16H8c-4.418,0-8,3.582-8,8v37v15c0,4.418,3.582,8,8,8h84c4.418,0,8-3.582,8-8V61V24
	C100,19.582,96.418,16,92,16z"/>
<g>
	<path fill="#F1C40F" d="M49.891,72.133c-15.007,0-26.763-11.317-26.763-25.764c0-2.763,0.428-5.502,1.271-8.145
		c0.153-0.48,0.599-0.798,1.092-0.798c0.048,0,0.097,0.003,0.146,0.009c0.548,0.07,0.969,0.521,1,1.074
		c0.83,14.828,12.717,24.005,23.254,24.005c10.538,0,22.425-9.178,23.254-24.005c0.031-0.552,0.452-1.004,1.001-1.074
		c0.049-0.006,0.098-0.009,0.146-0.009c0.493,0,0.938,0.318,1.092,0.798c0.844,2.642,1.271,5.382,1.271,8.145
		C76.654,60.815,64.898,72.133,49.891,72.133z"/>
</g>
<path fill="#F1C40F" d="M52.555,30.797c0.469,0.991,1.738,1.947,2.821,2.123l3.847,0.626c1.083,0.176,1.315,0.936,0.518,1.688
	l-2.837,2.673c-0.798,0.752-1.314,2.255-1.147,3.339l0.594,3.852c0.167,1.084-0.483,1.54-1.445,1.013l-3.419-1.871
	c-0.962-0.526-2.551-0.553-3.529-0.06l-3.481,1.755c-0.979,0.494-1.614,0.016-1.411-1.062l0.724-3.83
	c0.204-1.078-0.261-2.597-1.034-3.375L40.012,34.9c-0.773-0.779-0.515-1.53,0.574-1.67l3.866-0.496
	c1.088-0.139,2.389-1.051,2.891-2.026l1.784-3.466c0.502-0.975,1.296-0.962,1.765,0.03L52.555,30.797z"/>
</svg>
