<?xml version="1.0" encoding="utf-8"?>
<!-- Generator: Adobe Illustrator 17.0.2, SVG Export Plug-In . SVG Version: 6.00 Build 0)  -->
<!DOCTYPE svg PUBLIC "-//W3C//DTD SVG 1.1//EN" "http://www.w3.org/Graphics/SVG/1.1/DTD/svg11.dtd">
<svg version="1.1" id="Layer_1" xmlns="http://www.w3.org/2000/svg" xmlns:xlink="http://www.w3.org/1999/xlink" x="0px" y="0px"
	 width="100px" height="100px" viewBox="0 0 100 100" enable-background="new 0 0 100 100" xml:space="preserve">
<path fill="#27AE60" d="M100,76c0,4.418-3.582,8-8,8H8c-4.418,0-8-3.582-8-8V24c0-4.418,3.582-8,8-8h84c4.418,0,8,3.582,8,8V76z"/>
<path fill="#F1C40F" d="M100,76c0,4.418-3.582,8-8,8H8c-4.418,0-8-3.582-8-8V61h100V76z"/>
<rect y="38.708" fill="#FFFFFF" width="100" height="23"/>
<rect y="42.041" fill="#2C3E50" width="100" height="16.334"/>
<path fill="#E74C3C" d="M3.85,82.865l37.817-32.83L3.85,17.205C1.545,18.609,0,21.138,0,24.035v26v26
	C0,78.931,1.545,81.461,3.85,82.865z"/>
<path fill="#F1C40F" d="M15.317,41.414c0.411-0.83,1.084-0.83,1.493,0.002l1.455,2.957c0.409,0.832,1.495,1.623,2.413,1.757
	l3.261,0.478c0.917,0.136,1.125,0.775,0.46,1.421l-2.363,2.298c-0.665,0.646-1.082,1.923-0.926,2.838l0.554,3.249
	c0.156,0.914-0.388,1.309-1.209,0.876l-2.916-1.538c-0.819-0.433-2.164-0.434-2.984-0.004l-2.919,1.53
	c-0.822,0.43-1.364,0.035-1.206-0.879l0.561-3.248c0.158-0.913-0.256-2.192-0.919-2.84l-2.357-2.303
	c-0.662-0.648-0.455-1.287,0.464-1.419l3.262-0.47c0.918-0.131,2.006-0.92,2.417-1.751L15.317,41.414z"/>
</svg>
