<?xml version="1.0" encoding="utf-8"?>
<!-- Generator: Adobe Illustrator 17.0.2, SVG Export Plug-In . SVG Version: 6.00 Build 0)  -->
<!DOCTYPE svg PUBLIC "-//W3C//DTD SVG 1.1//EN" "http://www.w3.org/Graphics/SVG/1.1/DTD/svg11.dtd">
<svg version="1.1" id="Layer_1" xmlns="http://www.w3.org/2000/svg" xmlns:xlink="http://www.w3.org/1999/xlink" x="0px" y="0px"
	 width="100px" height="100px" viewBox="0 0 100 100" enable-background="new 0 0 100 100" xml:space="preserve">
<path fill="#2980B9" d="M92,16H8c-4.418,0-8,3.582-8,8v52c0,4.418,3.582,8,8,8h84c4.418,0,8-3.582,8-8V24
	C100,19.582,96.418,16,92,16z"/>
<path fill="#27AE60" d="M92,16L0,76c0,4.418,3.582,8,8,8h84c4.418,0,8-3.582,8-8V24C100,19.582,96.418,16,92,16z"/>
<path fill="#FFFFFF" d="M92,16h-7.5L0,70.375V76c0,4.418,3.582,8,8,8h7.875L100,29.375V24C100,19.582,96.418,16,92,16z"/>
<path fill="#E74C3C" d="M92,16L0,76c0,4.418,3.582,8,8,8l92-60C100,19.582,96.418,16,92,16z"/>
<g>
	<path fill="#F1C40F" d="M30.705,35.386c-0.067-0.067-0.15-0.12-0.242-0.156l-3.828-1.414l2.608-3.138
		c0.18-0.217,0.207-0.523,0.065-0.768c-0.03-0.052-0.067-0.099-0.108-0.14c-0.152-0.152-0.371-0.225-0.591-0.187l-4.022,0.69
		l0.69-4.022c0.037-0.22-0.035-0.438-0.188-0.591c-0.041-0.041-0.088-0.076-0.139-0.108c-0.244-0.142-0.551-0.115-0.768,0.065
		l-3.138,2.608l-1.414-3.828c-0.034-0.093-0.088-0.176-0.156-0.242C19.353,24.034,19.181,23.96,19,23.96
		c-0.282,0-0.534,0.176-0.632,0.441l-1.414,3.828l-3.138-2.608c-0.217-0.18-0.523-0.207-0.768-0.065
		c-0.244,0.142-0.375,0.419-0.327,0.697l0.69,4.022l-4.022-0.69c-0.278-0.048-0.557,0.084-0.697,0.327
		c-0.142,0.244-0.115,0.551,0.065,0.768l2.608,3.138L7.539,35.23c-0.265,0.098-0.441,0.35-0.441,0.632
		c0,0.183,0.074,0.353,0.197,0.476c0.068,0.068,0.15,0.12,0.242,0.156l3.828,1.414l-2.608,3.138
		c-0.18,0.217-0.207,0.523-0.065,0.768c0.03,0.052,0.067,0.099,0.108,0.14c0.152,0.152,0.371,0.225,0.591,0.187l4.022-0.69
		l-0.69,4.022c-0.037,0.22,0.035,0.438,0.187,0.591c0.041,0.041,0.088,0.078,0.14,0.108c0.244,0.14,0.551,0.115,0.768-0.065
		l3.138-2.608l1.414,3.828c0.034,0.093,0.088,0.176,0.156,0.242c0.123,0.123,0.293,0.197,0.476,0.197
		c0.282,0,0.534-0.176,0.632-0.441l1.414-3.828l3.138,2.608c0.217,0.18,0.523,0.207,0.768,0.065c0.244-0.14,0.375-0.419,0.327-0.697
		l-0.69-4.022l4.022,0.69c0.278,0.048,0.557-0.084,0.697-0.327c0.142-0.244,0.115-0.551-0.065-0.768l-2.608-3.138l3.828-1.414
		c0.265-0.098,0.441-0.35,0.441-0.632C30.903,35.679,30.83,35.509,30.705,35.386z M19,42.507c-3.67,0-6.645-2.975-6.645-6.645
		c0-3.67,2.975-6.645,6.645-6.645s6.645,2.975,6.645,6.645S22.67,42.507,19,42.507z"/>
	<circle fill="#F1C40F" cx="19" cy="35.862" r="5.471"/>
</g>
</svg>
