<?xml version="1.0" encoding="utf-8"?>
<!-- Generator: Adobe Illustrator 17.0.2, SVG Export Plug-In . SVG Version: 6.00 Build 0)  -->
<!DOCTYPE svg PUBLIC "-//W3C//DTD SVG 1.1//EN" "http://www.w3.org/Graphics/SVG/1.1/DTD/svg11.dtd">
<svg version="1.1" id="Layer_1" xmlns="http://www.w3.org/2000/svg" xmlns:xlink="http://www.w3.org/1999/xlink" x="0px" y="0px"
	 width="100px" height="100px" viewBox="0 0 100 100" enable-background="new 0 0 100 100" xml:space="preserve">
<path fill="#2ECC71" d="M100,76c0,4.418-3.582,8-8,8H8c-4.418,0-8-3.582-8-8V24c0-4.418,3.582-8,8-8h84c4.418,0,8,3.582,8,8V76z"/>
<path fill="#E74C3C" d="M100,76c0,4.418-3.582,8-8,8H8c-4.418,0-8-3.582-8-8V61h100V76z"/>
<rect y="38.708" fill="#F1C40F" width="100" height="23"/>
<path fill="#E67E22" d="M48.544,61.848c-0.032,0-0.064-0.005-0.094-0.017c-0.117-0.043-0.189-0.16-0.177-0.284l0.023-0.218
	c0.008-0.081,0.004-0.103-0.162-0.187l-0.102,0l-0.118-0.01l-0.11-0.018l-0.111-0.026l-0.107-0.033l-0.104-0.04l-0.099-0.045
	l-0.098-0.051l-0.094-0.056l-0.09-0.058l-0.089-0.063l-0.085-0.065l-0.083-0.068l-0.08-0.071l-0.077-0.072l-0.075-0.073
	l-0.073-0.076l-0.07-0.076l-0.068-0.076l-0.129-0.153l-0.153-0.191l-1.281-1.037l-0.095-0.081l-0.091-0.084l-0.084-0.086
	l-0.075-0.086l-0.068-0.09l-0.058-0.09l-0.05-0.094c-0.004-0.007-0.007-0.015-0.011-0.023l-0.03-0.073
	c-0.004-0.008-0.007-0.017-0.009-0.026l-0.022-0.073c-0.003-0.009-0.005-0.019-0.007-0.028l-0.013-0.072
	c-0.002-0.01-0.003-0.02-0.004-0.03l-0.005-0.071c-0.001-0.01-0.001-0.02,0-0.031l0.003-0.071c0-0.01,0.001-0.021,0.003-0.031
	l0.011-0.069c0.001-0.01,0.003-0.019,0.006-0.028l0.018-0.068c0.002-0.009,0.005-0.018,0.008-0.026l0.025-0.066l0.041-0.086
	l0.049-0.083l0.053-0.077l0.058-0.073l0.063-0.07l0.066-0.066l0.069-0.063l0.073-0.062l0.075-0.059l0.078-0.058l0.081-0.057
	l0.081-0.054l0.085-0.054l0.207-0.124l0.023-0.154l0.015-0.125l0.012-0.128l0.012-0.186l0.006-0.185l-0.001-0.237l-0.01-0.219
	l-0.017-0.196l-0.016-0.129l-0.01-0.066l-0.013-0.021l-0.026-0.027l-0.022-0.02l-0.025-0.021l-0.068-0.049l-0.085-0.052l-0.1-0.055
	l-0.171-0.084l-0.252-0.113l-0.433-0.188l-0.61,0.933l-0.066,0.099l-0.131,0.189l-0.13,0.176l-0.066,0.085l-0.067,0.081
	l-0.067,0.077l-0.068,0.075l-0.072,0.072l-0.073,0.069L42.76,56.07l-0.077,0.062l-0.081,0.059l-0.083,0.055l-0.088,0.051
	l-0.09,0.047l-0.094,0.042l-0.096,0.038l-0.101,0.034l-0.102,0.029l-0.024,0.006l-0.04,0.03l-0.042,0.03l-0.043,0.028l-0.046,0.028
	l-0.095,0.052l-0.051,0.025l-0.053,0.024l-0.054,0.022l-0.113,0.041l-0.062,0.019l-0.06,0.017l-0.064,0.016l-0.067,0.015
	l-0.068,0.013l-0.068,0.012l-0.072,0.01l-0.075,0.009l-0.076,0.007l-0.158,0.01l-0.084,0.002L40.36,56.9l-0.09-0.003l-0.187-0.012
	l-0.104-0.009l-0.14,0.056l-0.149,0.053l-0.103,0.032l-0.108,0.03l-0.109,0.026l-0.115,0.023l-0.058,0.01l-0.12,0.016l-0.061,0.006
	l-0.126,0.008l-0.127,0.002l-0.132-0.004l-0.068-0.005l-0.068-0.007l-0.101-0.013l-0.076,0.053l-0.084,0.049l-0.084,0.042
	l-0.084,0.035l-0.087,0.03l-0.085,0.024l-0.085,0.019l-0.083,0.014l-0.082,0.01l-0.081,0.007l-0.079,0.004l-0.077,0.001
	l-0.075-0.001l-0.072-0.002l-0.201-0.013l-0.219-0.018l-0.084-0.004l-0.026,0l-0.074,0.06l-0.192,0.152l-0.102,0.087l-0.052,0.048
	l-0.051,0.05l-0.052,0.053l-0.049,0.054l-0.043,0.051l0.031,0.033l0.264,0.262l0.07,0.073l0.718,0.048l0.042-0.014l0.129-0.035
	l0.129-0.024l0.126-0.013l0.124-0.003l0.12,0.007l0.118,0.018l0.112,0.027l0.106,0.035c0.008,0.003,0.016,0.006,0.024,0.009
	l0.079,0.035l0.095,0.051c0.008,0.004,0.015,0.009,0.022,0.014l0.068,0.047l0.082,0.066c0.007,0.005,0.013,0.011,0.019,0.017
	l0.056,0.056c0.006,0.006,0.012,0.012,0.017,0.019l0.05,0.06c0.006,0.007,0.011,0.014,0.016,0.022l0.043,0.063
	c0.005,0.008,0.028,0.049,0.028,0.049c0.045,0.029,0.088,0.061,0.129,0.099c0.221,0.201,0.408,0.571,0.271,1.003l-0.066,0.209
	c-0.036,0.114-0.142,0.19-0.26,0.19c-0.005,0-0.01,0-0.016,0c-0.124-0.007-0.228-0.098-0.252-0.22l-0.029-0.145
	c0,0-0.023,0.019-0.031,0.025l-0.076,0.054c-0.007,0.005-0.014,0.01-0.022,0.014l-0.076,0.044c0.042,0.29-0.021,0.638-0.302,0.925
	l-0.153,0.156c-0.053,0.054-0.123,0.082-0.195,0.082c-0.047,0-0.094-0.012-0.136-0.037c-0.108-0.062-0.16-0.189-0.126-0.309
	l0.059-0.211c0.011-0.038,0.014-0.065,0.008-0.09l-0.066,0.009l-0.054,0.005l-0.059,0.003l-0.057,0.001l-0.115-0.002l-0.114-0.008
	l-0.119-0.015l-0.117-0.019l-0.119-0.024l-0.162-0.041l-0.22-0.049l-0.15-0.029l-0.23-0.039l-0.235-0.033l-0.236-0.027l-0.238-0.022
	l-0.235-0.016l-0.233-0.012l-0.305-0.008c0,0-0.254,0-0.254,0c-0.07,0-0.138-0.027-0.189-0.076l-0.121-0.116l-0.093-0.092
	l-0.087-0.09l-0.079-0.087l-0.073-0.083l-0.067-0.082l-0.06-0.078l-0.055-0.078l-0.049-0.076l-0.044-0.075l-0.038-0.074
	l-0.033-0.074l-0.027-0.076l-0.021-0.075l-0.014-0.078c-0.002-0.009-0.003-0.018-0.003-0.028c0,0-0.004-0.068-0.004-0.077
	l0.001-0.05c0-0.011,0.001-0.023,0.003-0.034l0.007-0.048c0.002-0.01,0.004-0.021,0.007-0.031l0.013-0.046
	c0.003-0.009,0.006-0.018,0.009-0.027l0.017-0.043c0.004-0.01,0.008-0.019,0.013-0.028l0.022-0.041
	c0.004-0.008,0.009-0.016,0.014-0.024l0.026-0.038c0.005-0.007,0.045-0.057,0.045-0.057l0.048-0.051l0.049-0.044l0.05-0.039
	l0.053-0.036l0.052-0.032l0.055-0.03l0.022-0.087l0.018-0.085l0.014-0.085l0.009-0.082l0.005-0.081l0-0.079l-0.005-0.076
	l-0.009-0.074l-0.014-0.075l-0.019-0.072l-0.024-0.072l-0.029-0.071l-0.034-0.069l-0.041-0.071l-0.033-0.051
	c-0.019-0.029-0.031-0.061-0.038-0.095l-0.019-0.098l-0.015-0.086l-0.012-0.083l-0.01-0.081l-0.008-0.082l-0.006-0.075l-0.003-0.078
	l-0.001-0.074l0.002-0.073l0.004-0.071l0.007-0.071l0.01-0.066l0.014-0.07l0.016-0.064l0.019-0.064l0.026-0.067l0.027-0.059
	l0.033-0.06l0.036-0.056l0.044-0.057l0.045-0.051l0.05-0.048l0.054-0.043l0.06-0.04l0.059-0.033l0.066-0.03l0.064-0.023l0.066-0.019
	l0.068-0.014l0.068-0.01l0.08-0.006l0.547-0.194l0.39-0.143l0.399-0.153l0.394-0.159l0.255-0.108l0.243-0.109l0.117-0.055
	l0.112-0.054l0.107-0.054l0.102-0.053l0.096-0.053l0.09-0.052l0.083-0.051l0.074-0.049l0.068-0.048l0.057-0.044l0.048-0.041
	l0.037-0.036l0.014-0.016l0.027-0.038l0.08-0.121l0.1-0.139l0.102-0.132l0.105-0.128l0.108-0.124l0.109-0.12l0.111-0.118
	l0.221-0.227l0.327-0.331l0.105-0.109l0.103-0.109l0.1-0.109l0.096-0.11l0.092-0.111l0.089-0.114l0.083-0.115l0.078-0.117
	l0.073-0.12l0.067-0.123l0.062-0.127l0.056-0.131l0.049-0.136l0.042-0.141l0.035-0.148l0.028-0.155l0.02-0.162l0.007-0.105
	l-0.107,0.017l-0.209,0.02l-0.212,0.009l-0.218-0.003l-0.219-0.014L38.83,50.02l-0.221-0.037l-0.223-0.049l-0.22-0.06l-0.22-0.072
	l-0.216-0.084l-0.213-0.095l-0.208-0.107l-0.202-0.119l-0.195-0.131l-0.187-0.145l-0.177-0.157l-0.167-0.17l-0.155-0.182
	l-0.142-0.196l-0.126-0.208l-0.11-0.222l-0.092-0.235l-0.073-0.246l-0.053-0.258l-0.031-0.269l-0.008-0.28l0.015-0.289l0.04-0.3
	l0.065-0.308l0.033-0.12l0.039-0.116l0.046-0.113l0.052-0.109l0.058-0.106l0.064-0.103l0.07-0.101l0.074-0.095l0.08-0.093
	l0.085-0.089l0.089-0.086l0.094-0.083l0.097-0.078l0.101-0.075l0.107-0.072l0.109-0.068l0.114-0.065l0.117-0.061l0.121-0.058
	l0.123-0.054l0.127-0.051l0.129-0.048l0.134-0.044l0.135-0.041l0.139-0.038l0.141-0.034l0.144-0.031l0.146-0.027l0.148-0.024
	l0.151-0.02l0.152-0.017l0.155-0.013l0.292-0.018l0.295-0.01l0.295-0.003l0.297,0.003l0.298,0.009l0.298,0.015l0.298,0.019
	l0.298,0.024l0.298,0.028l0.297,0.031l0.296,0.034l0.295,0.037l0.294,0.038l0.582,0.081l1.136,0.164l0.548,0.076l0.269,0.035
	l0.264,0.032l0.26,0.029l0.255,0.026l0.249,0.021l0.244,0.017l0.237,0.012l0.23,0.006l0.225,0.001l0.217-0.005l0.21-0.012
	l0.196-0.018l0.18-0.025l0.167-0.031l0.153-0.036l0.14-0.041l0.127-0.045l0.116-0.049l0.104-0.051l0.094-0.054l0.082-0.055
	l0.073-0.057l0.066-0.058l0.054-0.057l0.049-0.058l0.041-0.057l0.035-0.057l0.028-0.055l0.023-0.055l0.008-0.022l-0.049,0.031
	l-0.144,0.08l-0.146,0.071l-0.149,0.061l-0.15,0.051l-0.153,0.04l-0.155,0.029l-0.155,0.019l-0.158,0.007l-0.157-0.004l-0.158-0.016
	l-0.158-0.028l-0.156-0.039l-0.156-0.052l-0.154-0.063l-0.153-0.075l-0.15-0.085l-0.149-0.097L46.8,43.295l-0.145-0.118l-0.143-0.13
	l-0.141-0.141l-0.139-0.151l-0.137-0.162l-0.135-0.173l-0.133-0.184l-0.131-0.196l-0.129-0.206l-0.286-0.49
	c-0.062-0.107-0.045-0.242,0.042-0.329c0.053-0.053,0.123-0.081,0.194-0.081c0.046,0,0.093,0.012,0.135,0.036l0.415,0.238
	l0.128,0.057l0.131,0.044l0.147,0.035l0.14,0.02l0.145,0.01l0.149,0.001l0.154-0.008l0.158-0.015l0.161-0.022l0.163-0.028
	l0.167-0.032l0.168-0.035l0.509-0.111l0.171-0.034l0.17-0.03l0.171-0.025l0.17-0.018l0.171-0.008l0.17,0.002l0.17,0.016
	c0.009,0.001,0.017,0.002,0.026,0.004l0.144,0.028c0.01,0.002,0.02,0.005,0.03,0.008l0.139,0.044
	c0.011,0.003,0.021,0.007,0.031,0.012l0.132,0.061c0.011,0.005,0.021,0.011,0.032,0.017l0.125,0.079
	c0.011,0.007,0.021,0.014,0.031,0.023l0.117,0.099c0.009,0.008,0.018,0.016,0.026,0.025l0.108,0.12
	c0.008,0.008,0.015,0.017,0.021,0.026l0.098,0.141c0.006,0.009,0.011,0.017,0.016,0.027l0.088,0.164
	c0.004,0.008,0.008,0.016,0.011,0.024l0.076,0.181l0.023,0.046l0.038,0.087l0.035,0.092l0.031,0.097l0.028,0.102l0.024,0.108
	l0.02,0.113l0.015,0.116l0.009,0.122l0.004,0.124l-0.003,0.13l-0.01,0.13l-0.018,0.134l-0.026,0.135l-0.035,0.137l-0.044,0.138
	l-0.054,0.138l-0.065,0.138l-0.076,0.137l-0.087,0.134L50.543,44.6l-0.111,0.129l-0.124,0.125l-0.135,0.12l-0.15,0.116l-0.162,0.109
	l-0.175,0.103L49.497,45.4l-0.203,0.09l-0.217,0.083l-0.231,0.076L48.6,45.717l-0.187,0.041l-0.205,0.031l-0.215,0.022l-0.228,0.014
	l-0.238,0.008l-0.25,0.001l-0.26-0.004l-0.27-0.01l-0.28-0.015l-0.287-0.019l-0.295-0.022l-0.302-0.025l-0.622-0.059l-1.946-0.203
	l-0.327-0.033l-0.325-0.031l-0.323-0.029l-0.32-0.027l-0.315-0.024l-0.311-0.021l-0.303-0.017l-0.297-0.012l-0.289-0.008
	l-0.28-0.003l-0.27,0.003l-0.259,0.009l-0.104,0.006l-0.101,0.009l-0.098,0.012l-0.096,0.014l-0.09,0.016l-0.089,0.019l-0.087,0.021
	l-0.08,0.023l-0.081,0.025l-0.077,0.026l-0.071,0.027l-0.071,0.03l-0.066,0.031l-0.065,0.032l-0.059,0.033l-0.057,0.034
	l-0.053,0.035l-0.05,0.036l-0.046,0.036l-0.042,0.036l-0.04,0.038l-0.035,0.037l-0.031,0.036L37.78,45.93l-0.025,0.036L37.734,46
	l-0.019,0.035l-0.016,0.034l-0.012,0.03l-0.01,0.032l-0.012,0.059l-0.016,0.144l-0.006,0.138l0.004,0.131l0.013,0.12l0.021,0.114
	l0.029,0.105l0.036,0.1l0.042,0.092l0.049,0.087l0.056,0.081l0.061,0.076l0.068,0.071l0.074,0.068l0.079,0.063l0.086,0.059
	l0.091,0.053l0.097,0.05l0.1,0.044l0.106,0.04l0.11,0.036l0.113,0.03l0.118,0.026l0.118,0.02l0.122,0.016l0.123,0.01l0.124,0.005
	l0.125,0l0.126-0.004l0.122-0.01l0.124-0.015l0.121-0.019l0.12-0.024l0.119-0.028l0.12-0.033l0.122-0.036l0.12-0.04l0.123-0.044
	l0.123-0.047l0.125-0.051l0.126-0.053l0.128-0.056l0.261-0.119l0.844-0.396l0.307-0.138l0.159-0.069l0.162-0.068l0.167-0.067
	l0.172-0.066l0.175-0.065l0.18-0.063l0.186-0.061l0.19-0.059l0.195-0.056l0.201-0.053l0.207-0.05l0.212-0.047l0.219-0.043
	l0.235-0.036l0.251-0.024l0.259-0.012l0.266-0.001l0.271,0.007l0.278,0.016l0.283,0.022l0.287,0.027l0.291,0.032l0.589,0.071
	l0.594,0.075l0.296,0.035l0.295,0.034l0.292,0.03l0.287,0.025l0.283,0.02l0.278,0.014l0.271,0.006l0.263-0.002l0.253-0.012
	l0.244-0.022l0.231-0.033l0.219-0.044l0.205-0.056l0.191-0.069l0.163-0.075l0.16-0.093l0.144-0.106l0.131-0.12l0.026-0.03
	l-0.008-0.056l-0.024-0.223l-0.016-0.22l-0.008-0.217l-0.001-0.214l0.007-0.211l0.015-0.208l0.022-0.205l0.029-0.202l0.037-0.2
	l0.043-0.196l0.05-0.194l0.056-0.19l0.013-0.039l-3.692-3.903c-0.039,0.048-0.084,0.094-0.134,0.138
	c-0.002,0.029-0.005,0.059-0.01,0.087c-0.047,0.324-0.224,0.585-0.511,0.756c-0.228,0.136-0.529,0.217-0.894,0.238
	c-0.069,0.004-0.139,0.006-0.211,0.006c-0.228,0-0.479-0.02-0.747-0.059c-0.003,0-0.007-0.001-0.01-0.002
	c-0.451-0.068-0.921-0.254-1.417-0.451c-0.468-0.186-0.945-0.376-1.428-0.477c-0.174,0.497-0.498,0.739-0.986,0.739
	c-0.125,0-0.264-0.016-0.427-0.048c-0.204-0.041-0.43-0.106-0.669-0.175c-0.564-0.163-1.192-0.344-1.916-0.344
	c-0.233,0-0.466,0.02-0.692,0.059l-0.249,0.043c-0.016,0.003-0.031,0.004-0.046,0.004c-0.109,0-0.209-0.065-0.252-0.169
	c-0.049-0.118-0.009-0.254,0.096-0.327l0.207-0.145c0.345-0.24,0.535-0.516,0.582-0.843c0.045-0.307-0.03-0.669-0.227-1.108
	l-0.033-0.073c-0.036-0.081-0.031-0.175,0.014-0.251c0.045-0.076,0.125-0.126,0.214-0.132l0.08-0.006
	c0.163-0.012,0.319-0.018,0.463-0.018c0.768,0,1.185,0.169,1.627,0.348c0.254,0.103,0.515,0.209,0.877,0.293v-0.432
	c0-0.125,0.085-0.234,0.206-0.264l0.043-0.011c0.284-0.071,0.573-0.106,0.859-0.106c0.873,0,1.621,0.32,2.343,0.629
	c0.496,0.212,0.961,0.412,1.439,0.496c0.105,0.019,0.205,0.033,0.298,0.044l-1.845-1.975l-0.91,0.316
	c-0.029,0.01-0.059,0.015-0.089,0.015c-0.07,0-0.139-0.027-0.191-0.078l-0.637-0.637c-0.066-0.066-0.094-0.161-0.074-0.252
	c0.02-0.091,0.086-0.166,0.173-0.197l0.708-0.257l-0.587-0.628c-0.064-0.068-0.088-0.164-0.065-0.254
	c0.023-0.09,0.091-0.163,0.18-0.191l0.707-0.228c0.027-0.009,0.055-0.013,0.082-0.013c0.074,0,0.146,0.03,0.198,0.086l0.729,0.776
	l0.869-0.316c0.031-0.011,0.062-0.017,0.094-0.017c0.073,0,0.144,0.029,0.196,0.083l0.654,0.676c0.064,0.067,0.09,0.162,0.068,0.253
	c-0.022,0.09-0.088,0.164-0.176,0.194l-0.667,0.231l0.986,1.049c0.031-0.002,0.063-0.003,0.094-0.003
	c0.351,0,0.714,0.114,1.021,0.32c0.221,0.148,0.397,0.336,0.511,0.543c0.133,0.242,0.178,0.506,0.132,0.764
	c-0.011,0.059-0.026,0.118-0.047,0.177l3.639,3.817l0.107-0.173l0.109-0.166l0.114-0.163l0.119-0.16l0.123-0.158l0.128-0.156
	l0.132-0.153l0.136-0.151l0.141-0.149l0.143-0.147l0.158-0.155l-0.015-0.109l-0.009-0.079l-0.014-0.163l-0.008-0.166l-0.004-0.167
	l0.002-0.169l0.006-0.169l0.011-0.171l0.015-0.17l0.03-0.255l0.038-0.252l0.03-0.167l0.05-0.242l0.054-0.226
	c0.03-0.122,0.139-0.208,0.265-0.208c0.002,0,0.151,0.003,0.151,0.003l0.088,0.005l0.084,0.008l0.082,0.012l0.082,0.016l0.077,0.02
	l0.077,0.024l0.073,0.028l0.073,0.033l0.068,0.036l0.066,0.041l0.062,0.044l0.061,0.049l0.019,0.017l0.115-0.016l0.269-0.034
	c-0.003-0.065,0.01-0.129,0.037-0.187l-0.062-0.366c-0.089-0.069-0.15-0.173-0.16-0.292c-0.008-0.095,0.017-0.186,0.066-0.261
	l-0.061-0.357c-0.123-0.066-0.207-0.19-0.216-0.335c-0.007-0.116,0.034-0.224,0.107-0.304l-0.158-0.846
	c-0.023-0.121,0.039-0.243,0.15-0.296c0.038-0.018,0.078-0.027,0.118-0.027c0.078,0,0.154,0.033,0.207,0.095l0.199,0.231
	c0.318-0.536,0.89-0.694,1.368-0.826c0.414-0.114,0.804-0.222,1.013-0.54l0.058-0.089c0.051-0.077,0.136-0.123,0.228-0.123
	c0.008,0,0.017,0,0.026,0.001c0.1,0.009,0.187,0.074,0.226,0.167l0.041,0.098c0.147,0.352,0.511,0.53,0.896,0.718
	c0.461,0.226,0.971,0.476,1.184,1.04l0.211-0.168c0.05-0.04,0.11-0.06,0.17-0.06c0.057,0,0.113,0.018,0.161,0.053
	c0.099,0.073,0.137,0.204,0.093,0.319l-0.236,0.607c-0.003,0.015-0.008,0.029-0.014,0.043l-0.062,0.15
	c0.059,0.093,0.08,0.207,0.052,0.32c-0.04,0.154-0.162,0.269-0.312,0.301l-0.115,0.277c0.056,0.094,0.074,0.208,0.043,0.32
	c-0.04,0.144-0.156,0.254-0.297,0.289l-0.088,0.21c0.049,0.083,0.068,0.181,0.05,0.278l0.172,0.084l0.144,0.078l0.14,0.082
	l0.135,0.086l0.118,0.082l0.082-0.06l0.081-0.053l0.082-0.049l0.083-0.044l0.085-0.042l0.081-0.037l0.119-0.049l0.117-0.041
	l0.109-0.032l0.068-0.016l0.112-0.021c0.017-0.003,0.033-0.005,0.05-0.005c0.123,0,0.234,0.083,0.264,0.207l0.041,0.166l0.022,0.098
	l0.018,0.102l0.015,0.099l0.013,0.101l0.01,0.102l0.007,0.102l0.004,0.103l0.002,0.102l-0.001,0.104l-0.003,0.102l-0.005,0.103
	l-0.008,0.104l-0.01,0.103l-0.012,0.103l-0.014,0.102l-0.017,0.104l-0.018,0.102l-0.021,0.104l-0.022,0.101l-0.024,0.102
	l-0.026,0.101l-0.028,0.1l-0.029,0.099l-0.064,0.198l-0.034,0.098l-0.073,0.192l-0.044,0.107l0.113,0.195l0.096,0.179l0.09,0.178
	l0.084,0.176l0.078,0.177l0.072,0.175l0.066,0.174l0.059,0.174l0.053,0.172l0.047,0.173l0.04,0.172l0.034,0.171l0.027,0.17
	l0.021,0.169l0.014,0.168l0.007,0.169l0.001,0.166l-0.006,0.165l-0.013,0.165l-0.019,0.163l-0.026,0.163l-0.032,0.161l-0.04,0.16
	l-0.046,0.158l-0.053,0.157l-0.06,0.155l-0.065,0.153l-0.073,0.153l-0.079,0.15l-0.085,0.147l0.012,0.033l0.064,0.208l0.053,0.208
	l0.043,0.206l0.033,0.206l0.023,0.205l0.013,0.205l0.003,0.203l-0.006,0.202l-0.016,0.201l-0.025,0.2l-0.034,0.198l-0.042,0.197
	l-0.051,0.196l-0.059,0.194L63.972,49.6l-0.075,0.192l-0.081,0.189l-0.089,0.188l-0.096,0.187l-0.103,0.185l-0.109,0.183
	l-0.116,0.183l-0.122,0.181l-0.127,0.18l-0.133,0.179l-0.055,0.071l1.168,1.225l0.684,0.262l0.103-0.025l0.227-0.036
	c0,0,0.24-0.015,0.243-0.015l0.184,0.005c0.009,0,0.018,0.001,0.027,0.002l0.172,0.022c0.009,0.001,0.018,0.003,0.027,0.005
	l0.161,0.038c0.009,0.002,0.018,0.005,0.026,0.007l0.15,0.051c0.009,0.003,0.018,0.007,0.027,0.011l0.138,0.064
	c0.008,0.004,0.016,0.008,0.024,0.013l0.127,0.075c0.008,0.005,0.016,0.01,0.023,0.015l0.115,0.085
	c0.007,0.005,0.014,0.011,0.021,0.017l0.103,0.094c0.006,0.006,0.012,0.012,0.018,0.018l0.091,0.1
	c0.006,0.007,0.012,0.014,0.017,0.021l0.079,0.106c0.005,0.007,0.01,0.014,0.014,0.022l0.067,0.11
	c0.004,0.007,0.008,0.015,0.012,0.022l0.055,0.113c0.004,0.008,0.007,0.016,0.01,0.024l0.043,0.115
	c0.003,0.008,0.009,0.031,0.009,0.031c0.264,0.187,0.505,0.53,0.459,0.996L67.47,55.33c-0.012,0.124-0.106,0.224-0.229,0.243
	c-0.014,0.002-0.028,0.003-0.042,0.003c-0.108,0-0.207-0.064-0.25-0.165c0,0-0.091-0.213-0.094-0.219
	c-0.004,0.005-0.089,0.083-0.089,0.083c-0.013,0.012-0.027,0.022-0.042,0.032l-0.089,0.055c-0.015,0.009-0.03,0.017-0.046,0.023
	l-0.026,0.01l1.61,1.688c0.057,0.059,0.084,0.141,0.073,0.223l-0.131,0.985c-0.014,0.104-0.086,0.191-0.186,0.223
	c-0.027,0.009-0.056,0.013-0.084,0.013c-0.074,0-0.146-0.03-0.198-0.085l-1.979-2.092l-0.087,0.087
	c-0.053,0.053-0.123,0.08-0.193,0.08c-0.047,0-0.095-0.012-0.138-0.038c-0.107-0.063-0.158-0.191-0.124-0.31l0.06-0.21
	c0.012-0.043,0.019-0.066-0.016-0.105l-0.07-0.01l-0.07-0.014l-0.072-0.017l-0.094-0.027c-0.014,0.304-0.165,0.67-0.558,0.871
	l-0.196,0.1c-0.039,0.02-0.082,0.03-0.124,0.03c-0.076,0-0.151-0.032-0.205-0.092c-0.082-0.093-0.091-0.231-0.021-0.333l0.123-0.182
	c0.027-0.039,0.04-0.059,0.013-0.116l-0.012-0.002l-0.092-0.023l-0.064-0.021l-0.064-0.027l-0.063-0.033l-0.056-0.035l-0.05-0.036
	l-0.049-0.04l-0.046-0.041l-0.083-0.081l-0.272-0.3l-0.082-0.086l-0.088-0.086l-0.096-0.086l-0.106-0.084L62.556,55l-0.062-0.039
	l-0.067-0.04l-0.071-0.039l-0.076-0.039l-0.079-0.037l-0.049-0.021l-0.334-0.058l-0.3-0.039l-0.308-0.026l-0.157-0.008l-0.014,0.126
	l-0.009,0.066l-0.034,0.192l-0.114,0.52l-0.031,0.162l-0.016,0.107l-0.013,0.109l-0.008,0.11l-0.002,0.057l0.001,0.115l0.006,0.122
	l0.011,0.128l0.014,0.132l0.029,0.205l0.161,0.936l0.033,0.224l0.019,0.15l0.015,0.162l0.072,0.042l0.064,0.041l0.062,0.044
	l0.059,0.046l0.057,0.049l0.054,0.051l0.052,0.054l0.049,0.057l0.045,0.057l0.046,0.067l0.266,0.009l0.286-0.001l0.316-0.015
	l0.184-0.015l0.067-0.024c0.008-0.003,0.016-0.005,0.025-0.008l0.112-0.028l0.132-0.023l0.132-0.011
	c0.007,0,0.023-0.001,0.025-0.001l0.106,0.002l0.125,0.012l0.122,0.022l0.117,0.031l0.112,0.039l0.106,0.047l0.1,0.053l0.095,0.061
	l0.087,0.066l0.08,0.071c0.006,0.006,0.012,0.012,0.018,0.018l0.057,0.061l0.064,0.081c0.006,0.008,0.022,0.032,0.022,0.032
	c0.244,0.153,0.485,0.468,0.442,0.904l-0.022,0.218c-0.012,0.124-0.107,0.224-0.23,0.242c-0.014,0.002-0.028,0.003-0.042,0.003
	c-0.108,0-0.207-0.064-0.25-0.165l-0.063-0.147L64.21,60.35c-0.011,0.007-0.022,0.013-0.033,0.019l-0.082,0.04
	c-0.01,0.005-0.02,0.009-0.03,0.012l-0.094,0.032c-0.008,0.003-0.017,0.005-0.026,0.007l-0.106,0.025l-0.043,0.007
	c0.043,0.225,0.005,0.458-0.113,0.665l-0.109,0.191c-0.049,0.086-0.141,0.137-0.237,0.137c-0.024,0-0.048-0.003-0.072-0.01
	c-0.12-0.033-0.202-0.143-0.2-0.267l0.004-0.219c0.001-0.058,0.001-0.068-0.157-0.131l-0.01-0.004l-0.078,0l-0.06-0.002
	l-0.145-0.011c-0.019,0.21-0.109,0.407-0.262,0.562l-0.154,0.155c-0.053,0.053-0.123,0.081-0.194,0.081
	c-0.047,0-0.094-0.012-0.137-0.037c-0.107-0.062-0.159-0.19-0.125-0.31l0.06-0.21c0.006-0.023,0.005-0.032,0.005-0.032
	c-0.008-0.019-0.068-0.063-0.1-0.087c-0.006-0.004-0.011-0.008-0.017-0.012L61.5,60.924l-0.083-0.007l-0.03,0.001l-0.012,0.003
	l-0.107,0.015l-0.164,0.031l-0.45,0.111l-0.134,0.026l-0.095,0.014l-0.099,0.009l-0.053,0.002l-0.103-0.001l-0.054-0.003
	l-0.054-0.006l-0.057-0.008l-0.053-0.01l-0.059-0.014l-0.065-0.019c-0.01-0.003-0.019-0.007-0.028-0.011l-0.043-0.019
	c-0.01-0.005-0.02-0.01-0.03-0.015c0,0-0.055-0.033-0.062-0.038l-0.037-0.027c-0.008-0.006-0.016-0.013-0.024-0.019l-0.034-0.032
	l-0.048-0.051l-0.044-0.056l-0.037-0.055l-0.033-0.056l-0.03-0.057l-0.026-0.056l-0.024-0.059l-0.042-0.115l-0.057-0.177
	l-0.094-0.31l-0.041-0.126l-0.045-0.126l-0.051-0.127l-0.057-0.127l-0.031-0.062l-0.034-0.063l-0.017-0.028L58.819,59.2
	l-0.044-0.055l-0.081-0.087l-0.093-0.087l-0.181-0.154l-0.23-0.194l-0.078-0.072l-0.076-0.076l-0.036-0.039l-0.037-0.044
	l-0.034-0.043l-0.032-0.044l-0.032-0.049l-0.082-0.144l-0.048-0.079l-0.049-0.076l-0.052-0.075l-0.053-0.074l-0.055-0.073
	l-0.113-0.144l-0.238-0.299l-0.121-0.159l-0.06-0.085l-0.059-0.088l-0.058-0.091l-0.057-0.095l-0.055-0.1l-0.052-0.103l-0.05-0.11
	l-0.046-0.115l-0.043-0.118l-0.039-0.126l-0.034-0.13l-0.03-0.137l-0.025-0.142l-0.02-0.148l-0.015-0.157l-0.007-0.121l-0.322,0.009
	l-0.328-0.009l-0.309-0.027l-0.292-0.044l-0.275-0.06l-0.259-0.074l-0.245-0.087l-0.231-0.098l-0.218-0.107l-0.207-0.116
	l-0.195-0.12l-0.187-0.125l-0.179-0.127l-0.173-0.127L52.651,53.9l-0.163-0.12l-0.163-0.116l-0.164-0.109l-0.167-0.103l-0.171-0.095
	l-0.176-0.086l-0.184-0.076l-0.193-0.066l-0.205-0.055l-0.218-0.043l-0.233-0.029l-0.251-0.015l-0.271,0.001l-0.203,0.013
	l0.079,0.325l0.056,0.257l0.043,0.23l0.032,0.211l0.018,0.152l0.021,0.249l0.009,0.156l-0.001,0.144c0,0.01-0.001,0.019-0.002,0.028
	l-0.015,0.131c-0.001,0.008-0.002,0.016-0.004,0.025L50.1,55.043L50.055,55.2l-0.056,0.152l-0.067,0.152l-0.075,0.149l-0.083,0.148
	l-0.09,0.146l-0.096,0.144l-0.102,0.142l-0.105,0.139l-0.109,0.138l-0.112,0.135l-0.114,0.132l-0.116,0.129l-0.116,0.125
	l-0.115,0.121l-0.114,0.117l-0.112,0.112l-0.215,0.208l-0.196,0.185l-0.326,0.297l0.035,0.048l0.034,0.043l0.038,0.045l0.043,0.048
	l0.045,0.047l0.104,0.1l0.112,0.097l0.06,0.048l0.06,0.045l0.063,0.044l0.063,0.041l0.064,0.039l0.064,0.036l0.064,0.034
	l0.061,0.028l0.061,0.025l0.059,0.021l0.056,0.017l0.052,0.012l0.042,0.007l0.13-0.03l0.194-0.032l0.184-0.017l0.177-0.002
	l0.165,0.012l0.157,0.025c0.009,0.001,0.017,0.003,0.026,0.006l0.122,0.033c0.009,0.002,0.018,0.005,0.027,0.009l0.111,0.043
	c0.009,0.003,0.018,0.007,0.027,0.012l0.1,0.051c0.009,0.005,0.018,0.01,0.026,0.015l0.089,0.059
	c0.009,0.006,0.017,0.012,0.025,0.019l0.079,0.066c0.008,0.007,0.015,0.014,0.022,0.021l0.068,0.071
	c0.007,0.007,0.014,0.016,0.021,0.024l0.057,0.076c0.006,0.009,0.012,0.018,0.018,0.027l0.046,0.079
	c0.005,0.009,0.01,0.018,0.014,0.028l0.035,0.082c0.004,0.009,0.019,0.057,0.019,0.057c0.002,0.002,0.004,0.003,0.006,0.005
	c0.221,0.2,0.408,0.57,0.271,1.002l-0.066,0.209c-0.036,0.114-0.142,0.19-0.26,0.19c-0.005,0-0.01,0-0.016,0
	c-0.124-0.007-0.228-0.098-0.252-0.219l-0.036-0.184c-0.006,0.003-0.092,0.041-0.092,0.041c-0.014,0.006-0.029,0.011-0.043,0.015
	l-0.083,0.02c-0.01,0.002-0.02,0.004-0.03,0.006c0.001,0.204-0.061,0.404-0.185,0.582l-0.124,0.18
	c-0.052,0.075-0.137,0.117-0.224,0.118c-0.032,0-0.064-0.006-0.095-0.017c-0.117-0.043-0.189-0.16-0.176-0.284l0.023-0.218
	c0.004-0.04,0.007-0.063-0.025-0.091c0,0-0.086,0.005-0.091,0.005c-0.006,0-0.103-0.006-0.103-0.006
	c-0.009-0.001-0.018-0.002-0.027-0.003l-0.092-0.016l-0.047-0.011c0.001,0.211-0.063,0.419-0.189,0.6l-0.125,0.18
	C48.716,61.806,48.632,61.848,48.544,61.848z"/>
</svg>
