<?xml version="1.0" encoding="utf-8"?>
<!-- Generator: Adobe Illustrator 17.0.2, SVG Export Plug-In . SVG Version: 6.00 Build 0)  -->
<!DOCTYPE svg PUBLIC "-//W3C//DTD SVG 1.1//EN" "http://www.w3.org/Graphics/SVG/1.1/DTD/svg11.dtd">
<svg version="1.1" id="Layer_1" xmlns="http://www.w3.org/2000/svg" xmlns:xlink="http://www.w3.org/1999/xlink" x="0px" y="0px"
	 width="100px" height="100px" viewBox="0 0 100 100" enable-background="new 0 0 100 100" xml:space="preserve">
<path fill="#27AE60" d="M92,16H8c-4.418,0-8,3.582-8,8v52c0,4.418,3.582,8,8,8h84c4.418,0,8-3.582,8-8V24
	C100,19.582,96.418,16,92,16z"/>
<path fill="#E74C3C" d="M92,16L0,76c0,4.418,3.582,8,8,8h84c4.418,0,8-3.582,8-8V24C100,19.582,96.418,16,92,16z"/>
<path fill="#F1C40F" d="M92,16H74.5L0,60.375V76c0,4.418,3.582,8,8,8h17.875L100,39.375V24C100,19.582,96.418,16,92,16z"/>
</svg>
