<?xml version="1.0" encoding="utf-8"?>
<!-- Generator: Adobe Illustrator 17.0.2, SVG Export Plug-In . SVG Version: 6.00 Build 0)  -->
<!DOCTYPE svg PUBLIC "-//W3C//DTD SVG 1.1//EN" "http://www.w3.org/Graphics/SVG/1.1/DTD/svg11.dtd">
<svg version="1.1" id="Layer_1" xmlns="http://www.w3.org/2000/svg" xmlns:xlink="http://www.w3.org/1999/xlink" x="0px" y="0px"
	 width="100px" height="100px" viewBox="0 0 100 100" enable-background="new 0 0 100 100" xml:space="preserve">
<path fill="#3498DB" d="M92,16H8c-4.418,0-8,3.582-8,8v24.5h100V24C100,19.582,96.418,16,92,16z"/>
<rect y="47.5" fill="#F1C40F" width="100" height="23.625"/>
<path fill="#27AE60" d="M0,65.097v10.5c0,4.418,3.582,8,8,8h84c4.418,0,8-3.582,8-8v-10.5H0z"/>
<path fill="#F1C40F" d="M92.394,31.914c-0.047-0.047-0.106-0.085-0.171-0.11l-2.702-0.998l1.841-2.215
	c0.127-0.153,0.146-0.369,0.046-0.542c-0.021-0.037-0.047-0.07-0.076-0.099c-0.107-0.107-0.262-0.159-0.417-0.132l-2.839,0.487
	l0.487-2.839c0.026-0.155-0.025-0.309-0.133-0.417c-0.029-0.029-0.062-0.054-0.098-0.076c-0.172-0.1-0.389-0.081-0.542,0.046
	l-2.215,1.841l-0.998-2.702c-0.024-0.066-0.062-0.124-0.11-0.171c-0.087-0.087-0.208-0.139-0.336-0.139
	c-0.199,0-0.377,0.124-0.446,0.311l-0.998,2.702l-2.215-1.841c-0.153-0.127-0.369-0.146-0.542-0.046
	c-0.172,0.1-0.265,0.296-0.231,0.492l0.487,2.839l-2.839-0.487c-0.196-0.034-0.393,0.059-0.492,0.231
	c-0.1,0.172-0.081,0.389,0.046,0.542l1.841,2.215l-2.702,0.998c-0.187,0.069-0.311,0.247-0.311,0.446
	c0,0.129,0.052,0.249,0.139,0.336c0.048,0.048,0.106,0.085,0.171,0.11l2.702,0.998L76.9,35.909
	c-0.127,0.153-0.146,0.369-0.046,0.542c0.021,0.037,0.047,0.07,0.076,0.099c0.107,0.107,0.262,0.159,0.417,0.132l2.839-0.487
	l-0.487,2.839c-0.026,0.155,0.025,0.309,0.132,0.417c0.029,0.029,0.062,0.055,0.099,0.076c0.172,0.099,0.389,0.081,0.542-0.046
	l2.215-1.841l0.998,2.702c0.024,0.066,0.062,0.124,0.11,0.171c0.087,0.087,0.207,0.139,0.336,0.139c0.199,0,0.377-0.124,0.446-0.311
	l0.998-2.702l2.215,1.841c0.153,0.127,0.369,0.146,0.542,0.046c0.172-0.099,0.265-0.296,0.231-0.492l-0.487-2.839l2.839,0.487
	c0.196,0.034,0.393-0.059,0.492-0.231c0.1-0.172,0.081-0.389-0.046-0.542l-1.841-2.215l2.702-0.998
	c0.187-0.069,0.311-0.247,0.311-0.446C92.534,32.121,92.482,32.001,92.394,31.914z M84.131,36.941c-2.591,0-4.691-2.1-4.691-4.691
	s2.1-4.691,4.691-4.691s4.691,2.1,4.691,4.691S86.722,36.941,84.131,36.941z"/>
<circle fill="#F1C40F" cx="84.131" cy="32.25" r="3.862"/>
</svg>
