<?xml version="1.0" encoding="utf-8"?>
<!-- Generator: Adobe Illustrator 17.0.2, SVG Export Plug-In . SVG Version: 6.00 Build 0)  -->
<!DOCTYPE svg PUBLIC "-//W3C//DTD SVG 1.1//EN" "http://www.w3.org/Graphics/SVG/1.1/DTD/svg11.dtd">
<svg version="1.1" id="Layer_1" xmlns="http://www.w3.org/2000/svg" xmlns:xlink="http://www.w3.org/1999/xlink" x="0px" y="0px"
	 width="100px" height="100px" viewBox="0 0 100 100" enable-background="new 0 0 100 100" xml:space="preserve">
<path fill="#27AE60" d="M100,76c0,4.418-3.582,8-8,8H8c-4.418,0-8-3.582-8-8V24c0-4.418,3.582-8,8-8h84c4.418,0,8,3.582,8,8V76z"/>
<rect y="35.167" fill="#F1C40F" width="100" height="29.667"/>
<path fill="#E74C3C" d="M3.85,82.823l37.817-32.83L3.85,17.163C1.545,18.567,0,21.096,0,23.993v26v26
	C0,78.889,1.545,81.419,3.85,82.823z"/>
<path fill="#2C3E50" d="M87.278,44.741c0.411,0.87,1.526,1.709,2.476,1.863l3.376,0.549c0.95,0.154,1.154,0.821,0.454,1.481
	l-2.49,2.346c-0.7,0.66-1.153,1.979-1.007,2.93l0.521,3.381c0.146,0.951-0.424,1.351-1.268,0.889l-3-1.642
	c-0.844-0.462-2.239-0.486-3.097-0.052l-3.055,1.54c-0.86,0.433-1.417,0.014-1.238-0.932l0.635-3.361
	c0.179-0.946-0.229-2.279-0.907-2.962l-2.409-2.429c-0.678-0.683-0.452-1.342,0.504-1.465l3.393-0.435
	c0.955-0.122,2.096-0.922,2.537-1.778l1.566-3.041c0.44-0.856,1.138-0.844,1.549,0.026L87.278,44.741z"/>
<path fill="#2C3E50" d="M63.278,44.741c0.411,0.87,1.526,1.709,2.476,1.863l3.376,0.549c0.95,0.154,1.154,0.821,0.454,1.481
	l-2.49,2.346c-0.7,0.66-1.153,1.979-1.007,2.93l0.521,3.381c0.146,0.951-0.424,1.351-1.268,0.889l-3-1.642
	c-0.844-0.462-2.239-0.486-3.097-0.052l-3.055,1.54c-0.86,0.433-1.417,0.014-1.238-0.932l0.635-3.361
	c0.179-0.946-0.229-2.279-0.907-2.962l-2.409-2.429c-0.678-0.683-0.452-1.342,0.504-1.465l3.393-0.435
	c0.955-0.122,2.096-0.922,2.537-1.778l1.566-3.041c0.44-0.856,1.138-0.844,1.549,0.026L63.278,44.741z"/>
</svg>
