<?xml version="1.0" encoding="utf-8"?>
<!-- Generator: Adobe Illustrator 17.0.2, SVG Export Plug-In . SVG Version: 6.00 Build 0)  -->
<!DOCTYPE svg PUBLIC "-//W3C//DTD SVG 1.1//EN" "http://www.w3.org/Graphics/SVG/1.1/DTD/svg11.dtd">
<svg version="1.1" id="Layer_1" xmlns="http://www.w3.org/2000/svg" xmlns:xlink="http://www.w3.org/1999/xlink" x="0px" y="0px"
	 width="100px" height="100px" viewBox="0 0 100 100" enable-background="new 0 0 100 100" xml:space="preserve">
<path fill="#2980B9" d="M92,16H8c-4.418,0-8,3.582-8,8v52c0,4.418,3.582,8,8,8h84c4.418,0,8-3.582,8-8V24
	C100,19.582,96.418,16,92,16z"/>
<path fill="#FFFFFF" d="M92,16c0,0-89.683,65.63-89.663,65.65c0.19,0.19,0.39,0.371,0.598,0.542C4.314,83.322,6.078,84,8,84h84
	c4.418,0,8-3.582,8-8V24C100,19.582,96.418,16,92,16z"/>
<path fill="#2ECC71" d="M2.337,81.65c0.19,0.19,0.39,0.371,0.598,0.542C4.314,83.322,6.078,84,8,84h84c4.418,0,8-3.582,8-8V61.25
	C100,61.25,2.317,81.63,2.337,81.65z"/>
<path fill="#F1C40F" d="M92,16H35.5L2.343,81.657L100,39.375V24C100,19.582,96.418,16,92,16z"/>
<path fill="#E74C3C" d="M92,16H67.5L2.343,81.657L100,39.375V24C100,19.582,96.418,16,92,16z"/>
</svg>
