<?xml version="1.0" encoding="utf-8"?>
<!-- Generator: Adobe Illustrator 17.0.2, SVG Export Plug-In . SVG Version: 6.00 Build 0)  -->
<!DOCTYPE svg PUBLIC "-//W3C//DTD SVG 1.1//EN" "http://www.w3.org/Graphics/SVG/1.1/DTD/svg11.dtd">
<svg version="1.1" id="Layer_1" xmlns="http://www.w3.org/2000/svg" xmlns:xlink="http://www.w3.org/1999/xlink" x="0px" y="0px"
	 width="100px" height="100px" viewBox="0 0 100 100" enable-background="new 0 0 100 100" xml:space="preserve">
<path fill="#3498DB" d="M100,76.013c0,4.418-3.582,8-8,8H8c-4.418,0-8-3.582-8-8v-52c0-4.418,3.582-8,8-8h84c4.418,0,8,3.582,8,8
	V76.013z"/>
<path fill="#FFFFFF" d="M54.426,40.187c0.748,1.582,2.774,3.107,4.501,3.387l6.139,0.999c1.728,0.281,2.099,1.493,0.826,2.693
	l-4.527,4.265c-1.273,1.2-2.097,3.598-1.831,5.327l0.948,6.147c0.266,1.729-0.77,2.457-2.306,1.617l-5.456-2.986
	c-1.534-0.84-4.07-0.883-5.632-0.095l-5.554,2.801c-1.563,0.788-2.576,0.025-2.251-1.694l1.155-6.112
	c0.325-1.72-0.417-4.143-1.65-5.386l-4.379-4.416c-1.233-1.243-0.821-2.441,0.916-2.664l6.169-0.791
	c1.736-0.222,3.812-1.677,4.612-3.233l2.847-5.53c0.8-1.556,2.068-1.534,2.817,0.048L54.426,40.187z"/>
</svg>
