<?xml version="1.0" encoding="utf-8"?>
<!-- Generator: Adobe Illustrator 17.0.2, SVG Export Plug-In . SVG Version: 6.00 Build 0)  -->
<!DOCTYPE svg PUBLIC "-//W3C//DTD SVG 1.1//EN" "http://www.w3.org/Graphics/SVG/1.1/DTD/svg11.dtd">
<svg version="1.1" id="Layer_1" xmlns="http://www.w3.org/2000/svg" xmlns:xlink="http://www.w3.org/1999/xlink" x="0px" y="0px"
	 width="100px" height="100px" viewBox="0 0 100 100" enable-background="new 0 0 100 100" xml:space="preserve">
<path fill="#2C3E50" d="M100,76c0,4.418-3.582,8-8,8H8c-4.418,0-8-3.582-8-8V24c0-4.418,3.582-8,8-8h84c4.418,0,8,3.582,8,8V76z"/>
<path fill="#27AE60" d="M100,76c0,4.418-3.582,8-8,8H8c-4.418,0-8-3.582-8-8V61h100V76z"/>
<rect y="38.708" fill="#FFFFFF" width="100" height="23"/>
<rect y="42.041" fill="#E74C3C" width="100" height="16.5"/>
<path fill="#2980B9" d="M3.85,82.823l37.817-32.83L3.85,17.163C1.545,18.567,0,21.096,0,23.993v26v26
	C0,78.889,1.545,81.419,3.85,82.823z"/>
<path fill="#F1C40F" d="M13.181,41.726c0.181-0.909,0.83-1.084,1.442-0.387l2.175,2.476c0.612,0.697,1.866,1.178,2.787,1.068
	l3.273-0.388c0.921-0.108,1.288,0.455,0.814,1.252l-1.683,2.834c-0.474,0.797-0.544,2.138-0.155,2.981l1.381,2.993
	c0.389,0.842-0.034,1.365-0.939,1.161l-3.216-0.725c-0.904-0.205-2.202,0.144-2.882,0.773l-2.42,2.237
	c-0.682,0.629-1.308,0.389-1.393-0.535l-0.304-3.282c-0.085-0.923-0.818-2.05-1.627-2.503l-2.876-1.61
	c-0.808-0.453-0.774-1.124,0.078-1.491l3.027-1.303c0.852-0.366,1.697-1.411,1.878-2.32L13.181,41.726z"/>
</svg>
