<?xml version="1.0" encoding="utf-8"?>
<!-- Generator: Adobe Illustrator 17.0.2, SVG Export Plug-In . SVG Version: 6.00 Build 0)  -->
<!DOCTYPE svg PUBLIC "-//W3C//DTD SVG 1.1//EN" "http://www.w3.org/Graphics/SVG/1.1/DTD/svg11.dtd">
<svg version="1.1" id="Layer_1" xmlns="http://www.w3.org/2000/svg" xmlns:xlink="http://www.w3.org/1999/xlink" x="0px" y="0px"
	 width="100px" height="100px" viewBox="0 0 100 100" enable-background="new 0 0 100 100" xml:space="preserve">
<path fill="#E74C3C" d="M100,76.013c0,4.418-3.582,8-8,8H8c-4.418,0-8-3.582-8-8v-52c0-4.418,3.582-8,8-8h84c4.418,0,8,3.582,8,8
	V76.013z"/>
<path fill="#2980B9" d="M100,76.013c0,4.418-3.582,8-8,8H8c-4.418,0-8-3.582-8-8v-22h100V76.013z"/>
<path fill="#FFFFFF" d="M50,38.166L11.792,16.013L8,16c-4.418,0-8,3.582-8,8v52c0,4.418,3.582,8,8,8h3.792L50,61.86h50V38.166H50z"
	/>
<path fill="#27AE60" d="M49.25,44.096c0,0-36-21.263-45.691-26.752C1.413,18.779,0,21.225,0,24v52c0,2.464,1.114,4.667,2.865,6.135
	L50,55.93h50V44.096H49.25z"/>
<polygon fill="#F1C40F" points="0,69.99 0,29.49 35.417,50.977 "/>
<polygon fill="#2C3E50" points="0,63.11 0,36.369 23.384,50.556 "/>
</svg>
