<?xml version="1.0" encoding="utf-8"?>
<!-- Generator: Adobe Illustrator 17.0.2, SVG Export Plug-In . SVG Version: 6.00 Build 0)  -->
<!DOCTYPE svg PUBLIC "-//W3C//DTD SVG 1.1//EN" "http://www.w3.org/Graphics/SVG/1.1/DTD/svg11.dtd">
<svg version="1.1" id="Layer_1" xmlns="http://www.w3.org/2000/svg" xmlns:xlink="http://www.w3.org/1999/xlink" x="0px" y="0px"
	 width="100px" height="100px" viewBox="0 0 100 100" enable-background="new 0 0 100 100" xml:space="preserve">
<path fill="#2980B9" d="M100,76c0,4.418-3.582,8-8,8H8c-4.418,0-8-3.582-8-8V24c0-4.418,3.582-8,8-8h84c4.418,0,8,3.582,8,8V76z"/>
<rect y="30.834" fill="#F1C40F" width="100" height="38.667"/>
<rect y="35.167" fill="#E74C3C" width="100" height="29.667"/>
<g>
	<path fill="#F1C40F" d="M84.45,49.563H16.057c-0.334,0-0.605,0.275-0.605,0.614s0.271,0.614,0.605,0.614H84.45
		c0.334,0,0.605-0.275,0.605-0.614S84.784,49.563,84.45,49.563z"/>
	<polygon fill="#FFFFFF" points="77.508,43.625 74.028,44.854 77.508,46.082 80.988,44.854 	"/>
	<path fill="#F1C40F" d="M75.22,44.444H24.931c-0.246,0-0.445,0.183-0.445,0.409s0.199,0.409,0.445,0.409H75.22
		c0.246,0,0.445-0.183,0.445-0.409S75.466,44.444,75.22,44.444z"/>
	<path fill="#F1C40F" d="M74.439,45.263c0.205,0,0.41-0.205,0.41-0.409s-0.205-0.409-0.41-0.409"/>
	<path fill="#F1C40F" d="M74.03,45.263c0.205,0,0.41-0.205,0.41-0.409s-0.205-0.409-0.41-0.409"/>
	<path fill="#F1C40F" d="M73.62,45.263c0.205,0,0.41-0.205,0.41-0.409s-0.205-0.409-0.41-0.409"/>
	<polygon fill="#FFFFFF" points="74.232,46.082 70.752,47.31 74.232,48.539 77.712,47.31 	"/>
	<path fill="#F1C40F" d="M71.944,46.901H21.655c-0.246,0-0.445,0.183-0.445,0.409c0,0.226,0.199,0.409,0.445,0.409h50.289
		c0.246,0,0.445-0.183,0.445-0.409C72.389,47.084,72.19,46.901,71.944,46.901z"/>
	<path fill="#F1C40F" d="M71.164,47.72c0.205,0,0.41-0.205,0.41-0.409c0-0.205-0.205-0.409-0.41-0.409"/>
	<path fill="#F1C40F" d="M70.754,47.72c0.205,0,0.41-0.205,0.41-0.409s-0.205-0.409-0.41-0.409"/>
	<path fill="#F1C40F" d="M70.345,47.72c0.205,0,0.41-0.205,0.41-0.409c0-0.205-0.205-0.409-0.41-0.409"/>
	<path fill="#FFFFFF" d="M70.546,49.974c-0.628-0.629-1.296-1.362-2.003-2.139c-3.931-4.317-9.315-10.229-18.671-10.229
		c-8.683,0-15.08,6.605-19.313,10.976c-0.482,0.498-0.938,0.968-1.361,1.392c-0.054,0.054-0.084,0.127-0.084,0.203
		c0,0.076,0.03,0.149,0.084,0.203c0.424,0.424,0.88,0.895,1.362,1.393c4.233,4.37,10.63,10.974,19.312,10.974
		c9.356,0,14.739-5.911,18.67-10.228c0.707-0.777,1.376-1.51,2.004-2.139C70.658,50.267,70.658,50.086,70.546,49.974z"/>
	<path fill="#2C3E50" d="M30.558,48.582c-0.482,0.498-0.938,0.968-1.361,1.392c-0.054,0.054-0.084,0.127-0.084,0.203
		c0,0.076,0.03,0.149,0.084,0.203c0.424,0.424,0.88,0.895,1.362,1.393c4.233,4.37,10.63,10.974,19.312,10.974v-25.14
		C41.188,37.607,34.791,44.212,30.558,48.582z"/>
	<path fill="#FFFFFF" d="M42.061,45.042c0-0.317-0.257-0.573-0.573-0.573h-0.253c-0.317,0-0.573,0.257-0.573,0.573v3.929
		c0,0.317,0.257,0.573,0.573,0.573h0.253c0.317,0,0.573-0.257,0.573-0.573V45.042z"/>
	<path fill="#FFFFFF" d="M39.194,45.042c0-0.317-0.257-0.573-0.573-0.573h-0.253c-0.317,0-0.573,0.257-0.573,0.573v3.929
		c0,0.317,0.257,0.573,0.573,0.573h0.253c0.317,0,0.573-0.257,0.573-0.573V45.042z"/>
	<path fill="#FFFFFF" d="M44.927,45.042c0-0.317-0.257-0.573-0.573-0.573H44.1c-0.317,0-0.573,0.257-0.573,0.573v3.929
		c0,0.317,0.257,0.573,0.573,0.573h0.253c0.317,0,0.573-0.257,0.573-0.573V45.042z"/>
	<path fill="#FFFFFF" d="M47.793,45.042c0-0.317-0.257-0.573-0.573-0.573h-0.253c-0.317,0-0.573,0.257-0.573,0.573v3.929
		c0,0.317,0.257,0.573,0.573,0.573h0.253c0.317,0,0.573-0.257,0.573-0.573V45.042z"/>
	<path fill="#FFFFFF" d="M42.061,51.204c0-0.317-0.257-0.573-0.573-0.573h-0.253c-0.317,0-0.573,0.257-0.573,0.573v3.929
		c0,0.317,0.257,0.573,0.573,0.573h0.253c0.317,0,0.573-0.257,0.573-0.573V51.204z"/>
	<path fill="#FFFFFF" d="M39.194,51.204c0-0.317-0.257-0.573-0.573-0.573h-0.253c-0.317,0-0.573,0.257-0.573,0.573v3.929
		c0,0.317,0.257,0.573,0.573,0.573h0.253c0.317,0,0.573-0.257,0.573-0.573V51.204z"/>
	<path fill="#FFFFFF" d="M44.927,51.204c0-0.317-0.257-0.573-0.573-0.573H44.1c-0.317,0-0.573,0.257-0.573,0.573v3.929
		c0,0.317,0.257,0.573,0.573,0.573h0.253c0.317,0,0.573-0.257,0.573-0.573V51.204z"/>
	<path fill="#FFFFFF" d="M47.793,51.204c0-0.317-0.257-0.573-0.573-0.573h-0.253c-0.317,0-0.573,0.257-0.573,0.573v3.929
		c0,0.317,0.257,0.573,0.573,0.573h0.253c0.317,0,0.573-0.257,0.573-0.573V51.204z"/>
	<path fill="#2C3E50" d="M56.105,45.042c0-0.317-0.257-0.573-0.573-0.573h-0.253c-0.317,0-0.573,0.257-0.573,0.573v3.929
		c0,0.317,0.257,0.573,0.573,0.573h0.253c0.317,0,0.573-0.257,0.573-0.573V45.042z"/>
	<path fill="#2C3E50" d="M53.238,45.042c0-0.317-0.257-0.573-0.573-0.573h-0.253c-0.317,0-0.573,0.257-0.573,0.573v3.929
		c0,0.317,0.257,0.573,0.573,0.573h0.253c0.317,0,0.573-0.257,0.573-0.573V45.042z"/>
	<path fill="#2C3E50" d="M58.971,45.042c0-0.317-0.257-0.573-0.573-0.573h-0.253c-0.317,0-0.573,0.257-0.573,0.573v3.929
		c0,0.317,0.257,0.573,0.573,0.573h0.253c0.317,0,0.573-0.257,0.573-0.573V45.042z"/>
	<path fill="#2C3E50" d="M61.837,45.042c0-0.317-0.257-0.573-0.573-0.573H61.01c-0.317,0-0.573,0.257-0.573,0.573v3.929
		c0,0.317,0.257,0.573,0.573,0.573h0.253c0.317,0,0.573-0.257,0.573-0.573V45.042z"/>
	<path fill="#2C3E50" d="M56.105,51.204c0-0.317-0.257-0.573-0.573-0.573h-0.253c-0.317,0-0.573,0.257-0.573,0.573v3.929
		c0,0.317,0.257,0.573,0.573,0.573h0.253c0.317,0,0.573-0.257,0.573-0.573V51.204z"/>
	<path fill="#2C3E50" d="M53.238,51.204c0-0.317-0.257-0.573-0.573-0.573h-0.253c-0.317,0-0.573,0.257-0.573,0.573v3.929
		c0,0.317,0.257,0.573,0.573,0.573h0.253c0.317,0,0.573-0.257,0.573-0.573V51.204z"/>
	<path fill="#2C3E50" d="M58.971,51.204c0-0.317-0.257-0.573-0.573-0.573h-0.253c-0.317,0-0.573,0.257-0.573,0.573v3.929
		c0,0.317,0.257,0.573,0.573,0.573h0.253c0.317,0,0.573-0.257,0.573-0.573V51.204z"/>
	<path fill="#2C3E50" d="M61.837,51.204c0-0.317-0.257-0.573-0.573-0.573H61.01c-0.317,0-0.573,0.257-0.573,0.573v3.929
		c0,0.317,0.257,0.573,0.573,0.573h0.253c0.317,0,0.573-0.257,0.573-0.573V51.204z"/>
</g>
</svg>
