<?xml version="1.0" encoding="utf-8"?>
<!-- Generator: Adobe Illustrator 17.0.2, SVG Export Plug-In . SVG Version: 6.00 Build 0)  -->
<!DOCTYPE svg PUBLIC "-//W3C//DTD SVG 1.1//EN" "http://www.w3.org/Graphics/SVG/1.1/DTD/svg11.dtd">
<svg version="1.1" id="Layer_1" xmlns="http://www.w3.org/2000/svg" xmlns:xlink="http://www.w3.org/1999/xlink" x="0px" y="0px"
	 width="100px" height="100px" viewBox="0 0 100 100" enable-background="new 0 0 100 100" xml:space="preserve">
<path fill="#27AE60" d="M100,76c0,4.418-3.582,8-8,8H8c-4.418,0-8-3.582-8-8V24c0-4.418,3.582-8,8-8h84c4.418,0,8,3.582,8,8V76z"/>
<rect y="30.833" fill="#F1C40F" width="100" height="13.6"/>
<rect y="57.833" fill="#F1C40F" width="100" height="13.6"/>
<path fill="#E74C3C" d="M0.052,24v33.833h41.781V16H8.052C3.634,16,0.052,19.582,0.052,24z"/>
<path fill="#FFFFFF" d="M24.205,30.183c0.593,1.254,2.199,2.463,3.569,2.685l4.867,0.792c1.37,0.222,1.664,1.184,0.654,2.135
	l-3.588,3.382c-1.009,0.951-1.663,2.852-1.451,4.223l0.752,4.873c0.211,1.371-0.61,1.947-1.828,1.281l-4.325-2.368
	c-1.216-0.666-3.227-0.7-4.464-0.075l-4.403,2.22c-1.239,0.624-2.042,0.02-1.784-1.344l0.916-4.845
	c0.257-1.363-0.331-3.284-1.308-4.27L8.34,35.371c-0.978-0.985-0.651-1.935,0.726-2.112l4.89-0.627
	c1.376-0.176,3.022-1.329,3.657-2.564l2.256-4.384c0.635-1.234,1.64-1.216,2.233,0.038L24.205,30.183z"/>
</svg>
