<?xml version="1.0" encoding="utf-8"?>
<!-- Generator: Adobe Illustrator 17.0.2, SVG Export Plug-In . SVG Version: 6.00 Build 0)  -->
<!DOCTYPE svg PUBLIC "-//W3C//DTD SVG 1.1//EN" "http://www.w3.org/Graphics/SVG/1.1/DTD/svg11.dtd">
<svg version="1.1" id="Layer_1" xmlns="http://www.w3.org/2000/svg" xmlns:xlink="http://www.w3.org/1999/xlink" x="0px" y="0px"
	 width="100px" height="100px" viewBox="0 0 100 100" enable-background="new 0 0 100 100" xml:space="preserve">
<path fill="#E74C3C" d="M100,76.013c0,4.418-3.582,8-8,8H8c-4.418,0-8-3.582-8-8v-52c0-4.418,3.582-8,8-8h84c4.418,0,8,3.582,8,8
	V76.013z"/>
<circle fill="#FFFFFF" cx="51.167" cy="50.833" r="20.333"/>
<path fill="#E74C3C" d="M54.867,44.275c0.149-0.753,0.687-0.897,1.194-0.32l1.801,2.051c0.507,0.578,1.545,0.975,2.308,0.884
	l2.71-0.321c0.763-0.09,1.067,0.377,0.674,1.037l-1.394,2.346c-0.393,0.66-0.451,1.771-0.129,2.468l1.143,2.478
	c0.322,0.697-0.028,1.13-0.778,0.961l-2.663-0.6c-0.748-0.17-1.823,0.12-2.387,0.641l-2.004,1.853
	c-0.564,0.521-1.083,0.322-1.154-0.443l-0.252-2.717c-0.071-0.764-0.677-1.698-1.347-2.072l-2.381-1.333
	c-0.669-0.375-0.642-0.931,0.065-1.235l2.507-1.079c0.706-0.304,1.405-1.169,1.555-1.921L54.867,44.275z"/>
<path fill="#E74C3C" d="M49.531,65.326c-7.915-1.118-13.445-8.466-12.328-16.381s8.466-13.446,16.381-12.328
	c4.174,0.589,7.88,2.971,10.168,6.534c0.1,0.154,0.064,0.359-0.082,0.471c-0.078,0.06-0.174,0.083-0.265,0.07
	c-0.079-0.012-0.154-0.049-0.211-0.111c-1.71-1.862-4.032-3.081-6.537-3.436c-5.985-0.844-11.541,3.337-12.385,9.322
	c-0.844,5.984,3.337,11.541,9.322,12.385c3.506,0.495,7.057-0.753,9.5-3.339c0.081-0.086,0.197-0.123,0.307-0.107
	c0.06,0.009,0.119,0.033,0.17,0.073c0.144,0.114,0.176,0.318,0.076,0.472C60.571,63.599,55.031,66.102,49.531,65.326z"/>
</svg>
