<?xml version="1.0" encoding="utf-8"?>
<!-- Generator: Adobe Illustrator 17.0.2, SVG Export Plug-In . SVG Version: 6.00 Build 0)  -->
<!DOCTYPE svg PUBLIC "-//W3C//DTD SVG 1.1//EN" "http://www.w3.org/Graphics/SVG/1.1/DTD/svg11.dtd">
<svg version="1.1" id="Layer_1" xmlns="http://www.w3.org/2000/svg" xmlns:xlink="http://www.w3.org/1999/xlink" x="0px" y="0px"
	 width="100px" height="100px" viewBox="0 0 100 100" enable-background="new 0 0 100 100" xml:space="preserve">
<path fill="#2C3E50" d="M100,76c0,4.418-3.582,8-8,8H8c-4.418,0-8-3.582-8-8V24c0-4.418,3.582-8,8-8h84c4.418,0,8,3.582,8,8V76z"/>
<path fill="#E74C3C" d="M100,76c0,4.418-3.582,8-8,8H8c-4.418,0-8-3.582-8-8V50h100V76z"/>
<rect y="38.667" fill="#E74C3C" width="100" height="11.33"/>
<rect y="27.333" fill="#F1C40F" width="100" height="11.33"/>
<rect y="61.354" fill="#F1C40F" width="100" height="11.33"/>
<rect y="50.021" fill="#2C3E50" width="100" height="11.33"/>
<circle fill="#FFFFFF" cx="50.625" cy="50" r="11.375"/>
<path fill="#2C3E50" d="M50.157,59.625c-0.58-0.001-1.106-0.367-1.31-0.909c-0.026-0.071-2.338-6.993-2.58-7.593
	c-0.256-0.632-0.468-1.158-0.468-2.356c0-1.366,1.321-3.066,1.784-3.554c-0.048-0.158-0.738-0.374-0.964-0.444
	c-0.384-0.12-0.577-0.18-0.577-0.427c0-0.51,0.7-0.801,1.437-1.022c-0.035-0.257-0.003-0.597,0.236-0.972l-0.548-1.008
	c-0.084-0.153-0.056-0.348,0.068-0.473c0.168-0.167,0.791-0.509,1.66-0.509c0.479,0,0.96,0.103,1.43,0.307
	c1.047,0.455,1.692,1.207,1.817,2.118c0.007,0.048-0.004,0.151-0.021,0.196c-0.077,0.21-0.145,0.226-0.793,0.382
	c-0.024,0.006-0.126,0.03-0.239,0.056c-0.035,0.378-0.218,1.093-1.028,1.767c-0.484,0.563-0.404,1.962-0.339,2.368
	c0.288,0.138,1.169,0.519,2.026,0.889c3.584,1.549,3.799,1.676,3.897,1.817c0.261,0.375,0.321,0.857,0.162,1.287l-2.69,7.192
	c-0.197,0.523-0.725,0.888-1.303,0.888H50.157z"/>
</svg>
