<?xml version="1.0" encoding="utf-8"?>
<!-- Generator: Adobe Illustrator 17.0.2, SVG Export Plug-In . SVG Version: 6.00 Build 0)  -->
<!DOCTYPE svg PUBLIC "-//W3C//DTD SVG 1.1//EN" "http://www.w3.org/Graphics/SVG/1.1/DTD/svg11.dtd">
<svg version="1.1" id="Layer_1" xmlns="http://www.w3.org/2000/svg" xmlns:xlink="http://www.w3.org/1999/xlink" x="0px" y="0px"
	 width="100px" height="100px" viewBox="0 0 100 100" enable-background="new 0 0 100 100" xml:space="preserve">
<path fill="#2ECC71" d="M100,76.013c0,4.418-3.582,8-8,8H8c-4.418,0-8-3.582-8-8v-52c0-4.418,3.582-8,8-8h84c4.418,0,8,3.582,8,8
	V76.013z"/>
<rect x="58.167" y="50.013" fill="#E74C3C" width="14" height="34"/>
<rect x="72.167" y="50.013" fill="#2C3E50" width="14" height="34"/>
<path fill="#E67E22" d="M100,76.013c0,4.418-3.582,8-8,8h-6v-34h14V76.013z"/>
<path fill="#E67E22" d="M76.502,41.801c-0.254,0-0.497-0.079-0.703-0.227l-12.333-8.917c-0.423-0.308-0.599-0.847-0.438-1.343
	c0.16-0.497,0.618-0.831,1.142-0.831h12.328v-3.06c0-1.122,0.913-2.034,2.034-2.034l0.104,0.006c1.7,0,3.362,1.512,3.433,1.576
	c0.05,0.046,0.073,0.114,0.062,0.181c-0.012,0.067-0.057,0.124-0.119,0.15l-1.444,0.609v2.571h12.479
	c0.523,0,0.981,0.334,1.142,0.831c0.16,0.499-0.017,1.038-0.441,1.343l-12.332,8.917c-0.206,0.148-0.449,0.227-0.703,0.227H76.502z"
	/>
</svg>
