<?xml version="1.0" encoding="utf-8"?>
<!-- Generator: Adobe Illustrator 17.0.2, SVG Export Plug-In . SVG Version: 6.00 Build 0)  -->
<!DOCTYPE svg PUBLIC "-//W3C//DTD SVG 1.1//EN" "http://www.w3.org/Graphics/SVG/1.1/DTD/svg11.dtd">
<svg version="1.1" id="Layer_1" xmlns="http://www.w3.org/2000/svg" xmlns:xlink="http://www.w3.org/1999/xlink" x="0px" y="0px"
	 width="100px" height="100px" viewBox="0 0 100 100" enable-background="new 0 0 100 100" xml:space="preserve">
<path fill="#27AE60" d="M100,76c0,4.418-3.582,8-8,8H8c-4.418,0-8-3.582-8-8V24c0-4.418,3.582-8,8-8h84c4.418,0,8,3.582,8,8V76z"/>
<rect y="45.167" fill="#2C3E50" width="100" height="9.7"/>
<rect y="35.458" fill="#E74C3C" width="100" height="9.7"/>
<rect y="25.771" fill="#F1C40F" width="100" height="9.7"/>
<rect y="64.583" fill="#E74C3C" width="100" height="9.7"/>
<rect y="54.896" fill="#F1C40F" width="100" height="9.7"/>
<text transform="matrix(1 0 0 1 306 396)" font-family="'MyriadPro-Regular'" font-size="12">2C3E50</text>
<path fill="#2C3E50" d="M6.998,16.062C3.053,16.555,0,19.922,0,24v52c0,4.26,3.33,7.742,7.529,7.986l39.138-33.952L6.998,16.062z"/>
<path fill="#FFFFFF" d="M3.85,82.865l37.817-32.83L3.85,17.205C1.545,18.609,0,21.138,0,24.035v26v26
	C0,78.931,1.545,81.461,3.85,82.865z"/>
<path fill="#E74C3C" d="M15.957,37.723c0.517-1.043,1.361-1.043,1.875,0.002l1.827,3.713c0.514,1.045,1.877,2.038,3.03,2.206
	l4.095,0.6c1.152,0.17,1.413,0.973,0.577,1.784l-2.967,2.885c-0.835,0.811-1.359,2.414-1.163,3.563l0.695,4.08
	c0.196,1.148-0.488,1.644-1.518,1.1l-3.662-1.931c-1.029-0.544-2.717-0.546-3.747-0.005l-3.665,1.921
	c-1.033,0.54-1.713,0.044-1.514-1.104l0.705-4.078c0.199-1.147-0.321-2.753-1.154-3.567L6.411,46
	c-0.831-0.813-0.571-1.616,0.582-1.782l4.096-0.59c1.153-0.165,2.519-1.156,3.036-2.198L15.957,37.723z"/>
<path fill="#FFC618" d="M11.819,56.819c-0.139,0-0.26-0.093-0.296-0.227c-1.285-4.704-1.285-4.861-1.285-4.912
	c0-0.87,0.386-1.641,0.796-2.458c0.199-0.396,0.407-0.812,0.583-1.264c0.498-1.285,0.488-3.971-0.022-5.637
	c-0.225-0.737-0.669-1.095-1.355-1.095c-0.2,0-0.368,0.03-0.471,0.048c-0.02,0.004-0.043,0.005-0.067,0.005
	c-0.077,0-0.166-0.019-0.218-0.061C9.415,41.163,9.332,41.088,9.327,41c-0.033-0.615,0.651-1.111,1.003-1.299
	c0.434-1.37,1.37-1.664,2.09-1.664c1.078,0,1.877,0.876,2.357,1.61c0.396,0.604,1.494,2.578,1.564,2.703l0,0
	c0.009,0,0.395,0.414,1.551,1.248c0.213,0.154,0.552,0.386,0.97,0.671c3.933,2.691,6.885,4.457,6.885,5.404
	c0,1.198-1.715,6.718-1.788,6.952c-0.04,0.128-0.159,0.216-0.293,0.216L11.819,56.819z"/>
</svg>
